G04 #@! TF.GenerationSoftware,KiCad,Pcbnew,(5.1.9)-1*
G04 #@! TF.CreationDate,2021-06-20T07:06:55+07:00*
G04 #@! TF.ProjectId,tally,74616c6c-792e-46b6-9963-61645f706362,rev?*
G04 #@! TF.SameCoordinates,Original*
G04 #@! TF.FileFunction,Soldermask,Top*
G04 #@! TF.FilePolarity,Negative*
%FSLAX46Y46*%
G04 Gerber Fmt 4.6, Leading zero omitted, Abs format (unit mm)*
G04 Created by KiCad (PCBNEW (5.1.9)-1) date 2021-06-20 07:06:55*
%MOMM*%
%LPD*%
G01*
G04 APERTURE LIST*
%ADD10C,2.302000*%
%ADD11O,1.603140X2.301640*%
%ADD12C,2.102000*%
%ADD13O,1.802000X1.802000*%
%ADD14C,3.102000*%
%ADD15O,1.702000X1.702000*%
G04 APERTURE END LIST*
D10*
X159325000Y-66025000D03*
X200325000Y-66025000D03*
G36*
G01*
X175495570Y-84295820D02*
X173994430Y-84295820D01*
G75*
G02*
X173943430Y-84244820I0J51000D01*
G01*
X173943430Y-82045180D01*
G75*
G02*
X173994430Y-81994180I51000J0D01*
G01*
X175495570Y-81994180D01*
G75*
G02*
X175546570Y-82045180I0J-51000D01*
G01*
X175546570Y-84244820D01*
G75*
G02*
X175495570Y-84295820I-51000J0D01*
G01*
G37*
D11*
X177285000Y-83145000D03*
X179825000Y-83145000D03*
X182365000Y-83145000D03*
X184905000Y-83145000D03*
X184905000Y-67905000D03*
X182365000Y-67905000D03*
X179825000Y-67905000D03*
X177285000Y-67905000D03*
X174745000Y-67905000D03*
D12*
X186325000Y-89525000D03*
X190825000Y-89525000D03*
X186325000Y-96025000D03*
X190825000Y-96025000D03*
X199825000Y-96025000D03*
X195325000Y-96025000D03*
X199825000Y-89525000D03*
X195325000Y-89525000D03*
D13*
X159325000Y-78565000D03*
G36*
G01*
X158424000Y-76875000D02*
X158424000Y-75175000D01*
G75*
G02*
X158475000Y-75124000I51000J0D01*
G01*
X160175000Y-75124000D01*
G75*
G02*
X160226000Y-75175000I0J-51000D01*
G01*
X160226000Y-76875000D01*
G75*
G02*
X160175000Y-76926000I-51000J0D01*
G01*
X158475000Y-76926000D01*
G75*
G02*
X158424000Y-76875000I0J51000D01*
G01*
G37*
G36*
G01*
X167774000Y-77525000D02*
X167774000Y-74525000D01*
G75*
G02*
X167825000Y-74474000I51000J0D01*
G01*
X170825000Y-74474000D01*
G75*
G02*
X170876000Y-74525000I0J-51000D01*
G01*
X170876000Y-77525000D01*
G75*
G02*
X170825000Y-77576000I-51000J0D01*
G01*
X167825000Y-77576000D01*
G75*
G02*
X167774000Y-77525000I0J51000D01*
G01*
G37*
D14*
X189815000Y-76025000D03*
D15*
X159325000Y-88405000D03*
X182185000Y-96025000D03*
X161865000Y-88405000D03*
X179645000Y-96025000D03*
X164405000Y-88405000D03*
X177105000Y-96025000D03*
X166945000Y-88405000D03*
X174565000Y-96025000D03*
X169485000Y-88405000D03*
X172025000Y-96025000D03*
X172025000Y-88405000D03*
X169485000Y-96025000D03*
X174565000Y-88405000D03*
X166945000Y-96025000D03*
X177105000Y-88405000D03*
X164405000Y-96025000D03*
X179645000Y-88405000D03*
X161865000Y-96025000D03*
X182185000Y-88405000D03*
G36*
G01*
X160125000Y-96876000D02*
X158525000Y-96876000D01*
G75*
G02*
X158474000Y-96825000I0J51000D01*
G01*
X158474000Y-95225000D01*
G75*
G02*
X158525000Y-95174000I51000J0D01*
G01*
X160125000Y-95174000D01*
G75*
G02*
X160176000Y-95225000I0J-51000D01*
G01*
X160176000Y-96825000D01*
G75*
G02*
X160125000Y-96876000I-51000J0D01*
G01*
G37*
D11*
X187425000Y-67905000D03*
X189965000Y-67905000D03*
X192505000Y-67905000D03*
X195045000Y-67905000D03*
X197585000Y-67905000D03*
X197585000Y-83145000D03*
X195045000Y-83145000D03*
X192505000Y-83145000D03*
X189965000Y-83145000D03*
G36*
G01*
X188175570Y-84295820D02*
X186674430Y-84295820D01*
G75*
G02*
X186623430Y-84244820I0J51000D01*
G01*
X186623430Y-82045180D01*
G75*
G02*
X186674430Y-81994180I51000J0D01*
G01*
X188175570Y-81994180D01*
G75*
G02*
X188226570Y-82045180I0J-51000D01*
G01*
X188226570Y-84244820D01*
G75*
G02*
X188175570Y-84295820I-51000J0D01*
G01*
G37*
X162065000Y-67905000D03*
X164605000Y-67905000D03*
X167145000Y-67905000D03*
X169685000Y-67905000D03*
X172225000Y-67905000D03*
X172225000Y-83145000D03*
X169685000Y-83145000D03*
X167145000Y-83145000D03*
X164605000Y-83145000D03*
G36*
G01*
X162815570Y-84295820D02*
X161314430Y-84295820D01*
G75*
G02*
X161263430Y-84244820I0J51000D01*
G01*
X161263430Y-82045180D01*
G75*
G02*
X161314430Y-81994180I51000J0D01*
G01*
X162815570Y-81994180D01*
G75*
G02*
X162866570Y-82045180I0J-51000D01*
G01*
X162866570Y-84244820D01*
G75*
G02*
X162815570Y-84295820I-51000J0D01*
G01*
G37*
D10*
X159325000Y-30025000D03*
X200325000Y-30025000D03*
G36*
G01*
X175495570Y-48295820D02*
X173994430Y-48295820D01*
G75*
G02*
X173943430Y-48244820I0J51000D01*
G01*
X173943430Y-46045180D01*
G75*
G02*
X173994430Y-45994180I51000J0D01*
G01*
X175495570Y-45994180D01*
G75*
G02*
X175546570Y-46045180I0J-51000D01*
G01*
X175546570Y-48244820D01*
G75*
G02*
X175495570Y-48295820I-51000J0D01*
G01*
G37*
D11*
X177285000Y-47145000D03*
X179825000Y-47145000D03*
X182365000Y-47145000D03*
X184905000Y-47145000D03*
X184905000Y-31905000D03*
X182365000Y-31905000D03*
X179825000Y-31905000D03*
X177285000Y-31905000D03*
X174745000Y-31905000D03*
D12*
X186325000Y-53525000D03*
X190825000Y-53525000D03*
X186325000Y-60025000D03*
X190825000Y-60025000D03*
X199825000Y-60025000D03*
X195325000Y-60025000D03*
X199825000Y-53525000D03*
X195325000Y-53525000D03*
D13*
X159325000Y-42565000D03*
G36*
G01*
X158424000Y-40875000D02*
X158424000Y-39175000D01*
G75*
G02*
X158475000Y-39124000I51000J0D01*
G01*
X160175000Y-39124000D01*
G75*
G02*
X160226000Y-39175000I0J-51000D01*
G01*
X160226000Y-40875000D01*
G75*
G02*
X160175000Y-40926000I-51000J0D01*
G01*
X158475000Y-40926000D01*
G75*
G02*
X158424000Y-40875000I0J51000D01*
G01*
G37*
G36*
G01*
X167774000Y-41525000D02*
X167774000Y-38525000D01*
G75*
G02*
X167825000Y-38474000I51000J0D01*
G01*
X170825000Y-38474000D01*
G75*
G02*
X170876000Y-38525000I0J-51000D01*
G01*
X170876000Y-41525000D01*
G75*
G02*
X170825000Y-41576000I-51000J0D01*
G01*
X167825000Y-41576000D01*
G75*
G02*
X167774000Y-41525000I0J51000D01*
G01*
G37*
D14*
X189815000Y-40025000D03*
D15*
X159325000Y-52405000D03*
X182185000Y-60025000D03*
X161865000Y-52405000D03*
X179645000Y-60025000D03*
X164405000Y-52405000D03*
X177105000Y-60025000D03*
X166945000Y-52405000D03*
X174565000Y-60025000D03*
X169485000Y-52405000D03*
X172025000Y-60025000D03*
X172025000Y-52405000D03*
X169485000Y-60025000D03*
X174565000Y-52405000D03*
X166945000Y-60025000D03*
X177105000Y-52405000D03*
X164405000Y-60025000D03*
X179645000Y-52405000D03*
X161865000Y-60025000D03*
X182185000Y-52405000D03*
G36*
G01*
X160125000Y-60876000D02*
X158525000Y-60876000D01*
G75*
G02*
X158474000Y-60825000I0J51000D01*
G01*
X158474000Y-59225000D01*
G75*
G02*
X158525000Y-59174000I51000J0D01*
G01*
X160125000Y-59174000D01*
G75*
G02*
X160176000Y-59225000I0J-51000D01*
G01*
X160176000Y-60825000D01*
G75*
G02*
X160125000Y-60876000I-51000J0D01*
G01*
G37*
D11*
X187425000Y-31905000D03*
X189965000Y-31905000D03*
X192505000Y-31905000D03*
X195045000Y-31905000D03*
X197585000Y-31905000D03*
X197585000Y-47145000D03*
X195045000Y-47145000D03*
X192505000Y-47145000D03*
X189965000Y-47145000D03*
G36*
G01*
X188175570Y-48295820D02*
X186674430Y-48295820D01*
G75*
G02*
X186623430Y-48244820I0J51000D01*
G01*
X186623430Y-46045180D01*
G75*
G02*
X186674430Y-45994180I51000J0D01*
G01*
X188175570Y-45994180D01*
G75*
G02*
X188226570Y-46045180I0J-51000D01*
G01*
X188226570Y-48244820D01*
G75*
G02*
X188175570Y-48295820I-51000J0D01*
G01*
G37*
X162065000Y-31905000D03*
X164605000Y-31905000D03*
X167145000Y-31905000D03*
X169685000Y-31905000D03*
X172225000Y-31905000D03*
X172225000Y-47145000D03*
X169685000Y-47145000D03*
X167145000Y-47145000D03*
X164605000Y-47145000D03*
G36*
G01*
X162815570Y-48295820D02*
X161314430Y-48295820D01*
G75*
G02*
X161263430Y-48244820I0J51000D01*
G01*
X161263430Y-46045180D01*
G75*
G02*
X161314430Y-45994180I51000J0D01*
G01*
X162815570Y-45994180D01*
G75*
G02*
X162866570Y-46045180I0J-51000D01*
G01*
X162866570Y-48244820D01*
G75*
G02*
X162815570Y-48295820I-51000J0D01*
G01*
G37*
D10*
X205000000Y-65850000D03*
X246000000Y-65850000D03*
G36*
G01*
X221170570Y-84120820D02*
X219669430Y-84120820D01*
G75*
G02*
X219618430Y-84069820I0J51000D01*
G01*
X219618430Y-81870180D01*
G75*
G02*
X219669430Y-81819180I51000J0D01*
G01*
X221170570Y-81819180D01*
G75*
G02*
X221221570Y-81870180I0J-51000D01*
G01*
X221221570Y-84069820D01*
G75*
G02*
X221170570Y-84120820I-51000J0D01*
G01*
G37*
D11*
X222960000Y-82970000D03*
X225500000Y-82970000D03*
X228040000Y-82970000D03*
X230580000Y-82970000D03*
X230580000Y-67730000D03*
X228040000Y-67730000D03*
X225500000Y-67730000D03*
X222960000Y-67730000D03*
X220420000Y-67730000D03*
D12*
X232000000Y-89350000D03*
X236500000Y-89350000D03*
X232000000Y-95850000D03*
X236500000Y-95850000D03*
X245500000Y-95850000D03*
X241000000Y-95850000D03*
X245500000Y-89350000D03*
X241000000Y-89350000D03*
D13*
X205000000Y-78390000D03*
G36*
G01*
X204099000Y-76700000D02*
X204099000Y-75000000D01*
G75*
G02*
X204150000Y-74949000I51000J0D01*
G01*
X205850000Y-74949000D01*
G75*
G02*
X205901000Y-75000000I0J-51000D01*
G01*
X205901000Y-76700000D01*
G75*
G02*
X205850000Y-76751000I-51000J0D01*
G01*
X204150000Y-76751000D01*
G75*
G02*
X204099000Y-76700000I0J51000D01*
G01*
G37*
G36*
G01*
X213449000Y-77350000D02*
X213449000Y-74350000D01*
G75*
G02*
X213500000Y-74299000I51000J0D01*
G01*
X216500000Y-74299000D01*
G75*
G02*
X216551000Y-74350000I0J-51000D01*
G01*
X216551000Y-77350000D01*
G75*
G02*
X216500000Y-77401000I-51000J0D01*
G01*
X213500000Y-77401000D01*
G75*
G02*
X213449000Y-77350000I0J51000D01*
G01*
G37*
D14*
X235490000Y-75850000D03*
D15*
X205000000Y-88230000D03*
X227860000Y-95850000D03*
X207540000Y-88230000D03*
X225320000Y-95850000D03*
X210080000Y-88230000D03*
X222780000Y-95850000D03*
X212620000Y-88230000D03*
X220240000Y-95850000D03*
X215160000Y-88230000D03*
X217700000Y-95850000D03*
X217700000Y-88230000D03*
X215160000Y-95850000D03*
X220240000Y-88230000D03*
X212620000Y-95850000D03*
X222780000Y-88230000D03*
X210080000Y-95850000D03*
X225320000Y-88230000D03*
X207540000Y-95850000D03*
X227860000Y-88230000D03*
G36*
G01*
X205800000Y-96701000D02*
X204200000Y-96701000D01*
G75*
G02*
X204149000Y-96650000I0J51000D01*
G01*
X204149000Y-95050000D01*
G75*
G02*
X204200000Y-94999000I51000J0D01*
G01*
X205800000Y-94999000D01*
G75*
G02*
X205851000Y-95050000I0J-51000D01*
G01*
X205851000Y-96650000D01*
G75*
G02*
X205800000Y-96701000I-51000J0D01*
G01*
G37*
D11*
X233100000Y-67730000D03*
X235640000Y-67730000D03*
X238180000Y-67730000D03*
X240720000Y-67730000D03*
X243260000Y-67730000D03*
X243260000Y-82970000D03*
X240720000Y-82970000D03*
X238180000Y-82970000D03*
X235640000Y-82970000D03*
G36*
G01*
X233850570Y-84120820D02*
X232349430Y-84120820D01*
G75*
G02*
X232298430Y-84069820I0J51000D01*
G01*
X232298430Y-81870180D01*
G75*
G02*
X232349430Y-81819180I51000J0D01*
G01*
X233850570Y-81819180D01*
G75*
G02*
X233901570Y-81870180I0J-51000D01*
G01*
X233901570Y-84069820D01*
G75*
G02*
X233850570Y-84120820I-51000J0D01*
G01*
G37*
X207740000Y-67730000D03*
X210280000Y-67730000D03*
X212820000Y-67730000D03*
X215360000Y-67730000D03*
X217900000Y-67730000D03*
X217900000Y-82970000D03*
X215360000Y-82970000D03*
X212820000Y-82970000D03*
X210280000Y-82970000D03*
G36*
G01*
X208490570Y-84120820D02*
X206989430Y-84120820D01*
G75*
G02*
X206938430Y-84069820I0J51000D01*
G01*
X206938430Y-81870180D01*
G75*
G02*
X206989430Y-81819180I51000J0D01*
G01*
X208490570Y-81819180D01*
G75*
G02*
X208541570Y-81870180I0J-51000D01*
G01*
X208541570Y-84069820D01*
G75*
G02*
X208490570Y-84120820I-51000J0D01*
G01*
G37*
D10*
X205000000Y-30000000D03*
X246000000Y-30000000D03*
D14*
X235490000Y-40000000D03*
G36*
G01*
X213449000Y-41500000D02*
X213449000Y-38500000D01*
G75*
G02*
X213500000Y-38449000I51000J0D01*
G01*
X216500000Y-38449000D01*
G75*
G02*
X216551000Y-38500000I0J-51000D01*
G01*
X216551000Y-41500000D01*
G75*
G02*
X216500000Y-41551000I-51000J0D01*
G01*
X213500000Y-41551000D01*
G75*
G02*
X213449000Y-41500000I0J51000D01*
G01*
G37*
G36*
G01*
X204099000Y-40850000D02*
X204099000Y-39150000D01*
G75*
G02*
X204150000Y-39099000I51000J0D01*
G01*
X205850000Y-39099000D01*
G75*
G02*
X205901000Y-39150000I0J-51000D01*
G01*
X205901000Y-40850000D01*
G75*
G02*
X205850000Y-40901000I-51000J0D01*
G01*
X204150000Y-40901000D01*
G75*
G02*
X204099000Y-40850000I0J51000D01*
G01*
G37*
D13*
X205000000Y-42540000D03*
D12*
X241000000Y-53500000D03*
X245500000Y-53500000D03*
X241000000Y-60000000D03*
X245500000Y-60000000D03*
X236500000Y-60000000D03*
X232000000Y-60000000D03*
X236500000Y-53500000D03*
X232000000Y-53500000D03*
G36*
G01*
X205800000Y-60851000D02*
X204200000Y-60851000D01*
G75*
G02*
X204149000Y-60800000I0J51000D01*
G01*
X204149000Y-59200000D01*
G75*
G02*
X204200000Y-59149000I51000J0D01*
G01*
X205800000Y-59149000D01*
G75*
G02*
X205851000Y-59200000I0J-51000D01*
G01*
X205851000Y-60800000D01*
G75*
G02*
X205800000Y-60851000I-51000J0D01*
G01*
G37*
D15*
X227860000Y-52380000D03*
X207540000Y-60000000D03*
X225320000Y-52380000D03*
X210080000Y-60000000D03*
X222780000Y-52380000D03*
X212620000Y-60000000D03*
X220240000Y-52380000D03*
X215160000Y-60000000D03*
X217700000Y-52380000D03*
X217700000Y-60000000D03*
X215160000Y-52380000D03*
X220240000Y-60000000D03*
X212620000Y-52380000D03*
X222780000Y-60000000D03*
X210080000Y-52380000D03*
X225320000Y-60000000D03*
X207540000Y-52380000D03*
X227860000Y-60000000D03*
X205000000Y-52380000D03*
G36*
G01*
X233850570Y-48270820D02*
X232349430Y-48270820D01*
G75*
G02*
X232298430Y-48219820I0J51000D01*
G01*
X232298430Y-46020180D01*
G75*
G02*
X232349430Y-45969180I51000J0D01*
G01*
X233850570Y-45969180D01*
G75*
G02*
X233901570Y-46020180I0J-51000D01*
G01*
X233901570Y-48219820D01*
G75*
G02*
X233850570Y-48270820I-51000J0D01*
G01*
G37*
D11*
X235640000Y-47120000D03*
X238180000Y-47120000D03*
X240720000Y-47120000D03*
X243260000Y-47120000D03*
X243260000Y-31880000D03*
X240720000Y-31880000D03*
X238180000Y-31880000D03*
X235640000Y-31880000D03*
X233100000Y-31880000D03*
X220420000Y-31880000D03*
X222960000Y-31880000D03*
X225500000Y-31880000D03*
X228040000Y-31880000D03*
X230580000Y-31880000D03*
X230580000Y-47120000D03*
X228040000Y-47120000D03*
X225500000Y-47120000D03*
X222960000Y-47120000D03*
G36*
G01*
X221170570Y-48270820D02*
X219669430Y-48270820D01*
G75*
G02*
X219618430Y-48219820I0J51000D01*
G01*
X219618430Y-46020180D01*
G75*
G02*
X219669430Y-45969180I51000J0D01*
G01*
X221170570Y-45969180D01*
G75*
G02*
X221221570Y-46020180I0J-51000D01*
G01*
X221221570Y-48219820D01*
G75*
G02*
X221170570Y-48270820I-51000J0D01*
G01*
G37*
G36*
G01*
X208490570Y-48270820D02*
X206989430Y-48270820D01*
G75*
G02*
X206938430Y-48219820I0J51000D01*
G01*
X206938430Y-46020180D01*
G75*
G02*
X206989430Y-45969180I51000J0D01*
G01*
X208490570Y-45969180D01*
G75*
G02*
X208541570Y-46020180I0J-51000D01*
G01*
X208541570Y-48219820D01*
G75*
G02*
X208490570Y-48270820I-51000J0D01*
G01*
G37*
X210280000Y-47120000D03*
X212820000Y-47120000D03*
X215360000Y-47120000D03*
X217900000Y-47120000D03*
X217900000Y-31880000D03*
X215360000Y-31880000D03*
X212820000Y-31880000D03*
X210280000Y-31880000D03*
X207740000Y-31880000D03*
M02*
