G04 #@! TF.GenerationSoftware,KiCad,Pcbnew,(5.1.9)-1*
G04 #@! TF.CreationDate,2021-06-20T07:06:55+07:00*
G04 #@! TF.ProjectId,tally,74616c6c-792e-46b6-9963-61645f706362,rev?*
G04 #@! TF.SameCoordinates,Original*
G04 #@! TF.FileFunction,Copper,L1,Top*
G04 #@! TF.FilePolarity,Positive*
%FSLAX46Y46*%
G04 Gerber Fmt 4.6, Leading zero omitted, Abs format (unit mm)*
G04 Created by KiCad (PCBNEW (5.1.9)-1) date 2021-06-20 07:06:55*
%MOMM*%
%LPD*%
G01*
G04 APERTURE LIST*
G04 #@! TA.AperFunction,ComponentPad*
%ADD10R,1.501140X2.199640*%
G04 #@! TD*
G04 #@! TA.AperFunction,ComponentPad*
%ADD11O,1.501140X2.199640*%
G04 #@! TD*
G04 #@! TA.AperFunction,ComponentPad*
%ADD12C,2.000000*%
G04 #@! TD*
G04 #@! TA.AperFunction,ComponentPad*
%ADD13O,1.700000X1.700000*%
G04 #@! TD*
G04 #@! TA.AperFunction,ComponentPad*
%ADD14R,1.700000X1.700000*%
G04 #@! TD*
G04 #@! TA.AperFunction,ComponentPad*
%ADD15R,3.000000X3.000000*%
G04 #@! TD*
G04 #@! TA.AperFunction,ComponentPad*
%ADD16C,3.000000*%
G04 #@! TD*
G04 #@! TA.AperFunction,ComponentPad*
%ADD17O,1.600000X1.600000*%
G04 #@! TD*
G04 #@! TA.AperFunction,ComponentPad*
%ADD18R,1.600000X1.600000*%
G04 #@! TD*
G04 #@! TA.AperFunction,ViaPad*
%ADD19C,0.800000*%
G04 #@! TD*
G04 #@! TA.AperFunction,Conductor*
%ADD20C,0.400000*%
G04 #@! TD*
G04 APERTURE END LIST*
D10*
X174745000Y-83145000D03*
D11*
X177285000Y-83145000D03*
X179825000Y-83145000D03*
X182365000Y-83145000D03*
X184905000Y-83145000D03*
X184905000Y-67905000D03*
X182365000Y-67905000D03*
X179825000Y-67905000D03*
X177285000Y-67905000D03*
X174745000Y-67905000D03*
D12*
X186325000Y-89525000D03*
X190825000Y-89525000D03*
X186325000Y-96025000D03*
X190825000Y-96025000D03*
X199825000Y-96025000D03*
X195325000Y-96025000D03*
X199825000Y-89525000D03*
X195325000Y-89525000D03*
D13*
X159325000Y-78565000D03*
D14*
X159325000Y-76025000D03*
D15*
X169325000Y-76025000D03*
D16*
X189815000Y-76025000D03*
D17*
X159325000Y-88405000D03*
X182185000Y-96025000D03*
X161865000Y-88405000D03*
X179645000Y-96025000D03*
X164405000Y-88405000D03*
X177105000Y-96025000D03*
X166945000Y-88405000D03*
X174565000Y-96025000D03*
X169485000Y-88405000D03*
X172025000Y-96025000D03*
X172025000Y-88405000D03*
X169485000Y-96025000D03*
X174565000Y-88405000D03*
X166945000Y-96025000D03*
X177105000Y-88405000D03*
X164405000Y-96025000D03*
X179645000Y-88405000D03*
X161865000Y-96025000D03*
X182185000Y-88405000D03*
D18*
X159325000Y-96025000D03*
D11*
X187425000Y-67905000D03*
X189965000Y-67905000D03*
X192505000Y-67905000D03*
X195045000Y-67905000D03*
X197585000Y-67905000D03*
X197585000Y-83145000D03*
X195045000Y-83145000D03*
X192505000Y-83145000D03*
X189965000Y-83145000D03*
D10*
X187425000Y-83145000D03*
D11*
X162065000Y-67905000D03*
X164605000Y-67905000D03*
X167145000Y-67905000D03*
X169685000Y-67905000D03*
X172225000Y-67905000D03*
X172225000Y-83145000D03*
X169685000Y-83145000D03*
X167145000Y-83145000D03*
X164605000Y-83145000D03*
D10*
X162065000Y-83145000D03*
X174745000Y-47145000D03*
D11*
X177285000Y-47145000D03*
X179825000Y-47145000D03*
X182365000Y-47145000D03*
X184905000Y-47145000D03*
X184905000Y-31905000D03*
X182365000Y-31905000D03*
X179825000Y-31905000D03*
X177285000Y-31905000D03*
X174745000Y-31905000D03*
D12*
X186325000Y-53525000D03*
X190825000Y-53525000D03*
X186325000Y-60025000D03*
X190825000Y-60025000D03*
X199825000Y-60025000D03*
X195325000Y-60025000D03*
X199825000Y-53525000D03*
X195325000Y-53525000D03*
D13*
X159325000Y-42565000D03*
D14*
X159325000Y-40025000D03*
D15*
X169325000Y-40025000D03*
D16*
X189815000Y-40025000D03*
D17*
X159325000Y-52405000D03*
X182185000Y-60025000D03*
X161865000Y-52405000D03*
X179645000Y-60025000D03*
X164405000Y-52405000D03*
X177105000Y-60025000D03*
X166945000Y-52405000D03*
X174565000Y-60025000D03*
X169485000Y-52405000D03*
X172025000Y-60025000D03*
X172025000Y-52405000D03*
X169485000Y-60025000D03*
X174565000Y-52405000D03*
X166945000Y-60025000D03*
X177105000Y-52405000D03*
X164405000Y-60025000D03*
X179645000Y-52405000D03*
X161865000Y-60025000D03*
X182185000Y-52405000D03*
D18*
X159325000Y-60025000D03*
D11*
X187425000Y-31905000D03*
X189965000Y-31905000D03*
X192505000Y-31905000D03*
X195045000Y-31905000D03*
X197585000Y-31905000D03*
X197585000Y-47145000D03*
X195045000Y-47145000D03*
X192505000Y-47145000D03*
X189965000Y-47145000D03*
D10*
X187425000Y-47145000D03*
D11*
X162065000Y-31905000D03*
X164605000Y-31905000D03*
X167145000Y-31905000D03*
X169685000Y-31905000D03*
X172225000Y-31905000D03*
X172225000Y-47145000D03*
X169685000Y-47145000D03*
X167145000Y-47145000D03*
X164605000Y-47145000D03*
D10*
X162065000Y-47145000D03*
X220420000Y-82970000D03*
D11*
X222960000Y-82970000D03*
X225500000Y-82970000D03*
X228040000Y-82970000D03*
X230580000Y-82970000D03*
X230580000Y-67730000D03*
X228040000Y-67730000D03*
X225500000Y-67730000D03*
X222960000Y-67730000D03*
X220420000Y-67730000D03*
D12*
X232000000Y-89350000D03*
X236500000Y-89350000D03*
X232000000Y-95850000D03*
X236500000Y-95850000D03*
X245500000Y-95850000D03*
X241000000Y-95850000D03*
X245500000Y-89350000D03*
X241000000Y-89350000D03*
D13*
X205000000Y-78390000D03*
D14*
X205000000Y-75850000D03*
D15*
X215000000Y-75850000D03*
D16*
X235490000Y-75850000D03*
D17*
X205000000Y-88230000D03*
X227860000Y-95850000D03*
X207540000Y-88230000D03*
X225320000Y-95850000D03*
X210080000Y-88230000D03*
X222780000Y-95850000D03*
X212620000Y-88230000D03*
X220240000Y-95850000D03*
X215160000Y-88230000D03*
X217700000Y-95850000D03*
X217700000Y-88230000D03*
X215160000Y-95850000D03*
X220240000Y-88230000D03*
X212620000Y-95850000D03*
X222780000Y-88230000D03*
X210080000Y-95850000D03*
X225320000Y-88230000D03*
X207540000Y-95850000D03*
X227860000Y-88230000D03*
D18*
X205000000Y-95850000D03*
D11*
X233100000Y-67730000D03*
X235640000Y-67730000D03*
X238180000Y-67730000D03*
X240720000Y-67730000D03*
X243260000Y-67730000D03*
X243260000Y-82970000D03*
X240720000Y-82970000D03*
X238180000Y-82970000D03*
X235640000Y-82970000D03*
D10*
X233100000Y-82970000D03*
D11*
X207740000Y-67730000D03*
X210280000Y-67730000D03*
X212820000Y-67730000D03*
X215360000Y-67730000D03*
X217900000Y-67730000D03*
X217900000Y-82970000D03*
X215360000Y-82970000D03*
X212820000Y-82970000D03*
X210280000Y-82970000D03*
D10*
X207740000Y-82970000D03*
D16*
X235490000Y-40000000D03*
D15*
X215000000Y-40000000D03*
D14*
X205000000Y-40000000D03*
D13*
X205000000Y-42540000D03*
D12*
X241000000Y-53500000D03*
X245500000Y-53500000D03*
X241000000Y-60000000D03*
X245500000Y-60000000D03*
X236500000Y-60000000D03*
X232000000Y-60000000D03*
X236500000Y-53500000D03*
X232000000Y-53500000D03*
D18*
X205000000Y-60000000D03*
D17*
X227860000Y-52380000D03*
X207540000Y-60000000D03*
X225320000Y-52380000D03*
X210080000Y-60000000D03*
X222780000Y-52380000D03*
X212620000Y-60000000D03*
X220240000Y-52380000D03*
X215160000Y-60000000D03*
X217700000Y-52380000D03*
X217700000Y-60000000D03*
X215160000Y-52380000D03*
X220240000Y-60000000D03*
X212620000Y-52380000D03*
X222780000Y-60000000D03*
X210080000Y-52380000D03*
X225320000Y-60000000D03*
X207540000Y-52380000D03*
X227860000Y-60000000D03*
X205000000Y-52380000D03*
D10*
X233100000Y-47120000D03*
D11*
X235640000Y-47120000D03*
X238180000Y-47120000D03*
X240720000Y-47120000D03*
X243260000Y-47120000D03*
X243260000Y-31880000D03*
X240720000Y-31880000D03*
X238180000Y-31880000D03*
X235640000Y-31880000D03*
X233100000Y-31880000D03*
X220420000Y-31880000D03*
X222960000Y-31880000D03*
X225500000Y-31880000D03*
X228040000Y-31880000D03*
X230580000Y-31880000D03*
X230580000Y-47120000D03*
X228040000Y-47120000D03*
X225500000Y-47120000D03*
X222960000Y-47120000D03*
D10*
X220420000Y-47120000D03*
X207740000Y-47120000D03*
D11*
X210280000Y-47120000D03*
X212820000Y-47120000D03*
X215360000Y-47120000D03*
X217900000Y-47120000D03*
X217900000Y-31880000D03*
X215360000Y-31880000D03*
X212820000Y-31880000D03*
X210280000Y-31880000D03*
X207740000Y-31880000D03*
D19*
X219200000Y-86650000D03*
X207200000Y-80350000D03*
X173525000Y-50825000D03*
X161525000Y-44525000D03*
X173525000Y-86825000D03*
X161525000Y-80525000D03*
X219200000Y-50800000D03*
X207200000Y-44500000D03*
D20*
X241000000Y-95850000D02*
X241000000Y-89350000D01*
X217700000Y-97050000D02*
X217700000Y-95850000D01*
X240600000Y-97950000D02*
X218600000Y-97950000D01*
X241000000Y-95850000D02*
X241000000Y-97550000D01*
X218600000Y-97950000D02*
X217700000Y-97050000D01*
X241000000Y-97550000D02*
X240600000Y-97950000D01*
X232000000Y-95850000D02*
X232000000Y-93250000D01*
X232000000Y-93250000D02*
X221700000Y-93250000D01*
X221700000Y-93250000D02*
X220240000Y-94710000D01*
X232000000Y-93250000D02*
X232000000Y-89350000D01*
X220240000Y-94710000D02*
X220240000Y-95850000D01*
X213900000Y-93350000D02*
X220000000Y-93350000D01*
X212620000Y-94630000D02*
X213900000Y-93350000D01*
X220000000Y-93350000D02*
X224000000Y-89350000D01*
X225500000Y-67730000D02*
X225500000Y-82970000D01*
X225500000Y-84450000D02*
X225500000Y-82970000D01*
X224000000Y-85950000D02*
X225500000Y-84450000D01*
X212620000Y-95850000D02*
X212620000Y-94630000D01*
X224000000Y-89350000D02*
X224000000Y-85950000D01*
X212820000Y-67730000D02*
X212820000Y-77390002D01*
X212820000Y-77390002D02*
X212820000Y-82970000D01*
X238180000Y-84970000D02*
X238180000Y-82970000D01*
X229100000Y-85650000D02*
X237500000Y-85650000D01*
X227860000Y-88230000D02*
X227860000Y-86890000D01*
X227860000Y-86890000D02*
X229100000Y-85650000D01*
X237500000Y-85650000D02*
X238180000Y-84970000D01*
X225320000Y-88230000D02*
X225320000Y-85930000D01*
X228040000Y-72610000D02*
X228040000Y-67730000D01*
X226800000Y-84450000D02*
X226800000Y-73850000D01*
X225320000Y-85930000D02*
X226800000Y-84450000D01*
X226800000Y-73850000D02*
X228040000Y-72610000D01*
X222780000Y-85670000D02*
X224200000Y-84250000D01*
X217900000Y-70350000D02*
X217900000Y-67730000D01*
X242500000Y-70650000D02*
X243260000Y-69890000D01*
X243260000Y-69890000D02*
X243260000Y-67730000D01*
X224200000Y-84250000D02*
X224200000Y-80150000D01*
X217900000Y-73850000D02*
X217900000Y-70350000D01*
X222780000Y-88230000D02*
X222780000Y-85670000D01*
X224200000Y-80150000D02*
X217900000Y-73850000D01*
X230580000Y-69630000D02*
X231600000Y-70650000D01*
X231600000Y-70650000D02*
X242500000Y-70650000D01*
X230580000Y-67730000D02*
X230580000Y-69630000D01*
X229200000Y-80750000D02*
X228040000Y-81910000D01*
X240720000Y-81770000D02*
X239700000Y-80750000D01*
X220240000Y-87690000D02*
X219200000Y-86650000D01*
X240720000Y-82970000D02*
X240720000Y-81770000D01*
X239700000Y-80750000D02*
X229200000Y-80750000D01*
X228040000Y-81910000D02*
X228040000Y-82970000D01*
X220240000Y-88230000D02*
X220240000Y-87690000D01*
X206300000Y-89450000D02*
X206300000Y-85050000D01*
X206300000Y-85050000D02*
X206300000Y-81250000D01*
X206300000Y-81250000D02*
X207200000Y-80350000D01*
X222960000Y-83190000D02*
X222960000Y-82970000D01*
X217700000Y-88230000D02*
X215080000Y-90850000D01*
X215080000Y-90850000D02*
X207700000Y-90850000D01*
X207700000Y-90850000D02*
X206300000Y-89450000D01*
X218400000Y-85350000D02*
X220800000Y-85350000D01*
X217700000Y-88230000D02*
X217700000Y-86050000D01*
X217700000Y-86050000D02*
X218400000Y-85350000D01*
X220800000Y-85350000D02*
X222960000Y-83190000D01*
X208800000Y-88950000D02*
X208800000Y-85850000D01*
X209800000Y-89950000D02*
X208800000Y-88950000D01*
X208800000Y-85850000D02*
X207740000Y-84790000D01*
X215160000Y-89190000D02*
X214400000Y-89950000D01*
X215160000Y-85490000D02*
X215900000Y-84750000D01*
X214400000Y-89950000D02*
X209800000Y-89950000D01*
X207740000Y-84790000D02*
X207740000Y-82970000D01*
X215160000Y-88230000D02*
X215160000Y-85490000D01*
X215900000Y-84750000D02*
X219500000Y-84750000D01*
X219500000Y-84750000D02*
X220420000Y-83830000D01*
X220420000Y-83830000D02*
X220420000Y-82970000D01*
X215160000Y-88230000D02*
X215160000Y-89190000D01*
X211500000Y-81650000D02*
X209900000Y-80050000D01*
X212620000Y-86870000D02*
X211500000Y-85750000D01*
X209900000Y-80050000D02*
X209900000Y-68110000D01*
X212620000Y-88230000D02*
X212620000Y-86870000D01*
X209900000Y-68110000D02*
X210280000Y-67730000D01*
X211500000Y-85750000D02*
X211500000Y-81650000D01*
X210080000Y-85630000D02*
X209000000Y-84550000D01*
X220420000Y-67730000D02*
X220420000Y-65270000D01*
X209000000Y-84550000D02*
X209000000Y-72550000D01*
X208900000Y-65250000D02*
X220400000Y-65250000D01*
X209000000Y-72550000D02*
X207740000Y-71290000D01*
X207740000Y-66410000D02*
X208900000Y-65250000D01*
X232200000Y-65250000D02*
X233100000Y-66150000D01*
X210080000Y-88230000D02*
X210080000Y-85630000D01*
X207740000Y-71290000D02*
X207740000Y-67730000D01*
X233100000Y-66150000D02*
X233100000Y-67730000D01*
X220420000Y-65270000D02*
X220400000Y-65250000D01*
X207740000Y-67730000D02*
X207740000Y-66410000D01*
X220400000Y-65250000D02*
X232200000Y-65250000D01*
X195325000Y-60025000D02*
X195325000Y-53525000D01*
X172025000Y-61225000D02*
X172025000Y-60025000D01*
X194925000Y-62125000D02*
X172925000Y-62125000D01*
X195325000Y-60025000D02*
X195325000Y-61725000D01*
X172925000Y-62125000D02*
X172025000Y-61225000D01*
X195325000Y-61725000D02*
X194925000Y-62125000D01*
X186325000Y-60025000D02*
X186325000Y-57425000D01*
X186325000Y-57425000D02*
X176025000Y-57425000D01*
X176025000Y-57425000D02*
X174565000Y-58885000D01*
X186325000Y-57425000D02*
X186325000Y-53525000D01*
X174565000Y-58885000D02*
X174565000Y-60025000D01*
X168225000Y-57525000D02*
X174325000Y-57525000D01*
X166945000Y-58805000D02*
X168225000Y-57525000D01*
X174325000Y-57525000D02*
X178325000Y-53525000D01*
X179825000Y-31905000D02*
X179825000Y-47145000D01*
X179825000Y-48625000D02*
X179825000Y-47145000D01*
X178325000Y-50125000D02*
X179825000Y-48625000D01*
X166945000Y-60025000D02*
X166945000Y-58805000D01*
X178325000Y-53525000D02*
X178325000Y-50125000D01*
X167145000Y-31905000D02*
X167145000Y-41565002D01*
X167145000Y-41565002D02*
X167145000Y-47145000D01*
X192505000Y-49145000D02*
X192505000Y-47145000D01*
X183425000Y-49825000D02*
X191825000Y-49825000D01*
X182185000Y-52405000D02*
X182185000Y-51065000D01*
X182185000Y-51065000D02*
X183425000Y-49825000D01*
X191825000Y-49825000D02*
X192505000Y-49145000D01*
X179645000Y-52405000D02*
X179645000Y-50105000D01*
X182365000Y-36785000D02*
X182365000Y-31905000D01*
X181125000Y-48625000D02*
X181125000Y-38025000D01*
X179645000Y-50105000D02*
X181125000Y-48625000D01*
X181125000Y-38025000D02*
X182365000Y-36785000D01*
X177105000Y-49845000D02*
X178525000Y-48425000D01*
X172225000Y-34525000D02*
X172225000Y-31905000D01*
X196825000Y-34825000D02*
X197585000Y-34065000D01*
X197585000Y-34065000D02*
X197585000Y-31905000D01*
X178525000Y-48425000D02*
X178525000Y-44325000D01*
X172225000Y-38025000D02*
X172225000Y-34525000D01*
X177105000Y-52405000D02*
X177105000Y-49845000D01*
X178525000Y-44325000D02*
X172225000Y-38025000D01*
X184905000Y-33805000D02*
X185925000Y-34825000D01*
X185925000Y-34825000D02*
X196825000Y-34825000D01*
X184905000Y-31905000D02*
X184905000Y-33805000D01*
X183525000Y-44925000D02*
X182365000Y-46085000D01*
X195045000Y-45945000D02*
X194025000Y-44925000D01*
X174565000Y-51865000D02*
X173525000Y-50825000D01*
X195045000Y-47145000D02*
X195045000Y-45945000D01*
X194025000Y-44925000D02*
X183525000Y-44925000D01*
X182365000Y-46085000D02*
X182365000Y-47145000D01*
X174565000Y-52405000D02*
X174565000Y-51865000D01*
X160625000Y-53625000D02*
X160625000Y-49225000D01*
X160625000Y-49225000D02*
X160625000Y-45425000D01*
X160625000Y-45425000D02*
X161525000Y-44525000D01*
X177285000Y-47365000D02*
X177285000Y-47145000D01*
X172025000Y-52405000D02*
X169405000Y-55025000D01*
X169405000Y-55025000D02*
X162025000Y-55025000D01*
X162025000Y-55025000D02*
X160625000Y-53625000D01*
X172725000Y-49525000D02*
X175125000Y-49525000D01*
X172025000Y-52405000D02*
X172025000Y-50225000D01*
X172025000Y-50225000D02*
X172725000Y-49525000D01*
X175125000Y-49525000D02*
X177285000Y-47365000D01*
X163125000Y-53125000D02*
X163125000Y-50025000D01*
X164125000Y-54125000D02*
X163125000Y-53125000D01*
X163125000Y-50025000D02*
X162065000Y-48965000D01*
X169485000Y-53365000D02*
X168725000Y-54125000D01*
X169485000Y-49665000D02*
X170225000Y-48925000D01*
X168725000Y-54125000D02*
X164125000Y-54125000D01*
X162065000Y-48965000D02*
X162065000Y-47145000D01*
X169485000Y-52405000D02*
X169485000Y-49665000D01*
X170225000Y-48925000D02*
X173825000Y-48925000D01*
X173825000Y-48925000D02*
X174745000Y-48005000D01*
X174745000Y-48005000D02*
X174745000Y-47145000D01*
X169485000Y-52405000D02*
X169485000Y-53365000D01*
X165825000Y-45825000D02*
X164225000Y-44225000D01*
X166945000Y-51045000D02*
X165825000Y-49925000D01*
X164225000Y-44225000D02*
X164225000Y-32285000D01*
X166945000Y-52405000D02*
X166945000Y-51045000D01*
X164225000Y-32285000D02*
X164605000Y-31905000D01*
X165825000Y-49925000D02*
X165825000Y-45825000D01*
X164405000Y-49805000D02*
X163325000Y-48725000D01*
X174745000Y-31905000D02*
X174745000Y-29445000D01*
X163325000Y-48725000D02*
X163325000Y-36725000D01*
X163225000Y-29425000D02*
X174725000Y-29425000D01*
X163325000Y-36725000D02*
X162065000Y-35465000D01*
X162065000Y-30585000D02*
X163225000Y-29425000D01*
X186525000Y-29425000D02*
X187425000Y-30325000D01*
X164405000Y-52405000D02*
X164405000Y-49805000D01*
X162065000Y-35465000D02*
X162065000Y-31905000D01*
X187425000Y-30325000D02*
X187425000Y-31905000D01*
X174745000Y-29445000D02*
X174725000Y-29425000D01*
X162065000Y-31905000D02*
X162065000Y-30585000D01*
X174725000Y-29425000D02*
X186525000Y-29425000D01*
X195325000Y-96025000D02*
X195325000Y-89525000D01*
X172025000Y-97225000D02*
X172025000Y-96025000D01*
X194925000Y-98125000D02*
X172925000Y-98125000D01*
X195325000Y-96025000D02*
X195325000Y-97725000D01*
X172925000Y-98125000D02*
X172025000Y-97225000D01*
X195325000Y-97725000D02*
X194925000Y-98125000D01*
X186325000Y-96025000D02*
X186325000Y-93425000D01*
X186325000Y-93425000D02*
X176025000Y-93425000D01*
X176025000Y-93425000D02*
X174565000Y-94885000D01*
X186325000Y-93425000D02*
X186325000Y-89525000D01*
X174565000Y-94885000D02*
X174565000Y-96025000D01*
X168225000Y-93525000D02*
X174325000Y-93525000D01*
X166945000Y-94805000D02*
X168225000Y-93525000D01*
X174325000Y-93525000D02*
X178325000Y-89525000D01*
X179825000Y-67905000D02*
X179825000Y-83145000D01*
X179825000Y-84625000D02*
X179825000Y-83145000D01*
X178325000Y-86125000D02*
X179825000Y-84625000D01*
X166945000Y-96025000D02*
X166945000Y-94805000D01*
X178325000Y-89525000D02*
X178325000Y-86125000D01*
X167145000Y-67905000D02*
X167145000Y-77565002D01*
X167145000Y-77565002D02*
X167145000Y-83145000D01*
X192505000Y-85145000D02*
X192505000Y-83145000D01*
X183425000Y-85825000D02*
X191825000Y-85825000D01*
X182185000Y-88405000D02*
X182185000Y-87065000D01*
X182185000Y-87065000D02*
X183425000Y-85825000D01*
X191825000Y-85825000D02*
X192505000Y-85145000D01*
X179645000Y-88405000D02*
X179645000Y-86105000D01*
X182365000Y-72785000D02*
X182365000Y-67905000D01*
X181125000Y-84625000D02*
X181125000Y-74025000D01*
X179645000Y-86105000D02*
X181125000Y-84625000D01*
X181125000Y-74025000D02*
X182365000Y-72785000D01*
X177105000Y-85845000D02*
X178525000Y-84425000D01*
X172225000Y-70525000D02*
X172225000Y-67905000D01*
X196825000Y-70825000D02*
X197585000Y-70065000D01*
X197585000Y-70065000D02*
X197585000Y-67905000D01*
X178525000Y-84425000D02*
X178525000Y-80325000D01*
X172225000Y-74025000D02*
X172225000Y-70525000D01*
X177105000Y-88405000D02*
X177105000Y-85845000D01*
X178525000Y-80325000D02*
X172225000Y-74025000D01*
X184905000Y-69805000D02*
X185925000Y-70825000D01*
X185925000Y-70825000D02*
X196825000Y-70825000D01*
X184905000Y-67905000D02*
X184905000Y-69805000D01*
X183525000Y-80925000D02*
X182365000Y-82085000D01*
X195045000Y-81945000D02*
X194025000Y-80925000D01*
X174565000Y-87865000D02*
X173525000Y-86825000D01*
X195045000Y-83145000D02*
X195045000Y-81945000D01*
X194025000Y-80925000D02*
X183525000Y-80925000D01*
X182365000Y-82085000D02*
X182365000Y-83145000D01*
X174565000Y-88405000D02*
X174565000Y-87865000D01*
X160625000Y-89625000D02*
X160625000Y-85225000D01*
X160625000Y-85225000D02*
X160625000Y-81425000D01*
X160625000Y-81425000D02*
X161525000Y-80525000D01*
X177285000Y-83365000D02*
X177285000Y-83145000D01*
X172025000Y-88405000D02*
X169405000Y-91025000D01*
X169405000Y-91025000D02*
X162025000Y-91025000D01*
X162025000Y-91025000D02*
X160625000Y-89625000D01*
X172725000Y-85525000D02*
X175125000Y-85525000D01*
X172025000Y-88405000D02*
X172025000Y-86225000D01*
X172025000Y-86225000D02*
X172725000Y-85525000D01*
X175125000Y-85525000D02*
X177285000Y-83365000D01*
X163125000Y-89125000D02*
X163125000Y-86025000D01*
X164125000Y-90125000D02*
X163125000Y-89125000D01*
X163125000Y-86025000D02*
X162065000Y-84965000D01*
X169485000Y-89365000D02*
X168725000Y-90125000D01*
X169485000Y-85665000D02*
X170225000Y-84925000D01*
X168725000Y-90125000D02*
X164125000Y-90125000D01*
X162065000Y-84965000D02*
X162065000Y-83145000D01*
X169485000Y-88405000D02*
X169485000Y-85665000D01*
X170225000Y-84925000D02*
X173825000Y-84925000D01*
X173825000Y-84925000D02*
X174745000Y-84005000D01*
X174745000Y-84005000D02*
X174745000Y-83145000D01*
X169485000Y-88405000D02*
X169485000Y-89365000D01*
X165825000Y-81825000D02*
X164225000Y-80225000D01*
X166945000Y-87045000D02*
X165825000Y-85925000D01*
X164225000Y-80225000D02*
X164225000Y-68285000D01*
X166945000Y-88405000D02*
X166945000Y-87045000D01*
X164225000Y-68285000D02*
X164605000Y-67905000D01*
X165825000Y-85925000D02*
X165825000Y-81825000D01*
X164405000Y-85805000D02*
X163325000Y-84725000D01*
X174745000Y-67905000D02*
X174745000Y-65445000D01*
X163325000Y-84725000D02*
X163325000Y-72725000D01*
X163225000Y-65425000D02*
X174725000Y-65425000D01*
X163325000Y-72725000D02*
X162065000Y-71465000D01*
X162065000Y-66585000D02*
X163225000Y-65425000D01*
X186525000Y-65425000D02*
X187425000Y-66325000D01*
X164405000Y-88405000D02*
X164405000Y-85805000D01*
X162065000Y-71465000D02*
X162065000Y-67905000D01*
X187425000Y-66325000D02*
X187425000Y-67905000D01*
X174745000Y-65445000D02*
X174725000Y-65425000D01*
X162065000Y-67905000D02*
X162065000Y-66585000D01*
X174725000Y-65425000D02*
X186525000Y-65425000D01*
X192505000Y-30145000D02*
X192505000Y-31905000D01*
X193125000Y-29525000D02*
X192505000Y-30145000D01*
X200125000Y-32225000D02*
X197425000Y-29525000D01*
X197425000Y-29525000D02*
X193125000Y-29525000D01*
X200125000Y-48125000D02*
X200125000Y-32225000D01*
X199105000Y-49145000D02*
X200125000Y-48125000D01*
X192505000Y-49145000D02*
X199105000Y-49145000D01*
X238800000Y-65350000D02*
X238180000Y-65970000D01*
X243150000Y-65350000D02*
X238800000Y-65350000D01*
X245800000Y-68000000D02*
X243150000Y-65350000D01*
X238180000Y-65970000D02*
X238180000Y-67730000D01*
X245800000Y-83950000D02*
X245800000Y-68000000D01*
X244780000Y-84970000D02*
X245800000Y-83950000D01*
X238180000Y-84970000D02*
X244780000Y-84970000D01*
X192505000Y-66145000D02*
X192505000Y-67905000D01*
X193125000Y-65525000D02*
X192505000Y-66145000D01*
X197425000Y-65525000D02*
X193125000Y-65525000D01*
X200125000Y-68225000D02*
X197425000Y-65525000D01*
X200125000Y-84125000D02*
X200125000Y-68225000D01*
X199105000Y-85145000D02*
X200125000Y-84125000D01*
X192505000Y-85145000D02*
X199105000Y-85145000D01*
X241000000Y-60000000D02*
X241000000Y-53500000D01*
X241000000Y-60000000D02*
X241000000Y-61700000D01*
X241000000Y-61700000D02*
X240600000Y-62100000D01*
X240600000Y-62100000D02*
X218600000Y-62100000D01*
X217700000Y-61200000D02*
X217700000Y-60000000D01*
X218600000Y-62100000D02*
X217700000Y-61200000D01*
X232000000Y-57400000D02*
X221700000Y-57400000D01*
X232000000Y-60000000D02*
X232000000Y-57400000D01*
X232000000Y-57400000D02*
X232000000Y-53500000D01*
X220240000Y-58860000D02*
X220240000Y-60000000D01*
X221700000Y-57400000D02*
X220240000Y-58860000D01*
X212620000Y-60000000D02*
X212620000Y-58780000D01*
X212620000Y-58780000D02*
X213900000Y-57500000D01*
X213900000Y-57500000D02*
X220000000Y-57500000D01*
X220000000Y-57500000D02*
X224000000Y-53500000D01*
X224000000Y-53500000D02*
X224000000Y-50100000D01*
X225500000Y-48600000D02*
X225500000Y-47120000D01*
X224000000Y-50100000D02*
X225500000Y-48600000D01*
X225500000Y-31880000D02*
X225500000Y-47120000D01*
X212820000Y-41540002D02*
X212820000Y-47120000D01*
X212820000Y-31880000D02*
X212820000Y-41540002D01*
X227860000Y-52380000D02*
X227860000Y-51040000D01*
X227860000Y-51040000D02*
X229100000Y-49800000D01*
X229100000Y-49800000D02*
X237500000Y-49800000D01*
X238180000Y-49120000D02*
X238180000Y-47120000D01*
X237500000Y-49800000D02*
X238180000Y-49120000D01*
X238800000Y-29500000D02*
X238180000Y-30120000D01*
X243100000Y-29500000D02*
X238800000Y-29500000D01*
X245800000Y-32200000D02*
X243100000Y-29500000D01*
X245800000Y-48100000D02*
X245800000Y-32200000D01*
X244780000Y-49120000D02*
X245800000Y-48100000D01*
X238180000Y-30120000D02*
X238180000Y-31880000D01*
X238180000Y-49120000D02*
X244780000Y-49120000D01*
X225320000Y-52380000D02*
X225320000Y-50080000D01*
X225320000Y-50080000D02*
X226800000Y-48600000D01*
X226800000Y-48600000D02*
X226800000Y-38000000D01*
X228040000Y-36760000D02*
X228040000Y-31880000D01*
X226800000Y-38000000D02*
X228040000Y-36760000D01*
X222780000Y-52380000D02*
X222780000Y-49820000D01*
X222780000Y-49820000D02*
X224200000Y-48400000D01*
X224200000Y-48400000D02*
X224200000Y-44300000D01*
X224200000Y-44300000D02*
X217900000Y-38000000D01*
X217900000Y-38000000D02*
X217900000Y-34500000D01*
X217900000Y-34500000D02*
X217900000Y-31880000D01*
X230580000Y-31880000D02*
X230580000Y-33780000D01*
X230580000Y-33780000D02*
X231600000Y-34800000D01*
X231600000Y-34800000D02*
X242500000Y-34800000D01*
X243260000Y-34040000D02*
X243260000Y-31880000D01*
X242500000Y-34800000D02*
X243260000Y-34040000D01*
X220240000Y-51840000D02*
X219200000Y-50800000D01*
X220240000Y-52380000D02*
X220240000Y-51840000D01*
X240720000Y-47120000D02*
X240720000Y-45920000D01*
X240720000Y-45920000D02*
X239700000Y-44900000D01*
X239700000Y-44900000D02*
X229200000Y-44900000D01*
X228040000Y-46060000D02*
X228040000Y-47120000D01*
X229200000Y-44900000D02*
X228040000Y-46060000D01*
X217700000Y-52380000D02*
X215080000Y-55000000D01*
X215080000Y-55000000D02*
X207700000Y-55000000D01*
X207700000Y-55000000D02*
X206300000Y-53600000D01*
X206300000Y-53600000D02*
X206300000Y-49200000D01*
X206300000Y-49200000D02*
X206300000Y-45400000D01*
X206300000Y-45400000D02*
X207200000Y-44500000D01*
X222960000Y-47340000D02*
X222960000Y-47120000D01*
X218400000Y-49500000D02*
X220800000Y-49500000D01*
X220800000Y-49500000D02*
X222960000Y-47340000D01*
X217700000Y-50200000D02*
X218400000Y-49500000D01*
X217700000Y-52380000D02*
X217700000Y-50200000D01*
X215160000Y-52380000D02*
X215160000Y-53340000D01*
X215160000Y-53340000D02*
X214400000Y-54100000D01*
X214400000Y-54100000D02*
X209800000Y-54100000D01*
X209800000Y-54100000D02*
X208800000Y-53100000D01*
X208800000Y-53100000D02*
X208800000Y-50000000D01*
X207740000Y-48940000D02*
X207740000Y-47120000D01*
X208800000Y-50000000D02*
X207740000Y-48940000D01*
X220420000Y-47980000D02*
X220420000Y-47120000D01*
X219500000Y-48900000D02*
X220420000Y-47980000D01*
X215900000Y-48900000D02*
X219500000Y-48900000D01*
X215160000Y-49640000D02*
X215900000Y-48900000D01*
X215160000Y-52380000D02*
X215160000Y-49640000D01*
X212620000Y-52380000D02*
X212620000Y-51020000D01*
X212620000Y-51020000D02*
X211500000Y-49900000D01*
X211500000Y-49900000D02*
X211500000Y-45800000D01*
X211500000Y-45800000D02*
X209900000Y-44200000D01*
X209900000Y-32260000D02*
X210280000Y-31880000D01*
X209900000Y-44200000D02*
X209900000Y-32260000D01*
X207740000Y-35440000D02*
X207740000Y-31880000D01*
X209000000Y-36700000D02*
X207740000Y-35440000D01*
X209000000Y-48700000D02*
X209000000Y-36700000D01*
X210080000Y-49780000D02*
X209000000Y-48700000D01*
X210080000Y-52380000D02*
X210080000Y-49780000D01*
X207740000Y-31880000D02*
X207740000Y-30560000D01*
X207740000Y-30560000D02*
X208900000Y-29400000D01*
X233100000Y-30300000D02*
X233100000Y-31880000D01*
X232200000Y-29400000D02*
X233100000Y-30300000D01*
X220420000Y-29420000D02*
X220400000Y-29400000D01*
X220400000Y-29400000D02*
X232200000Y-29400000D01*
X220420000Y-31880000D02*
X220420000Y-29420000D01*
X208900000Y-29400000D02*
X220400000Y-29400000D01*
M02*
