M48
; DRILL file {KiCad (5.1.9)-1} date 06/20/21 07:06:59
; FORMAT={-:-/ absolute / inch / decimal}
; #@! TF.CreationDate,2021-06-20T07:06:59+07:00
; #@! TF.GenerationSoftware,Kicad,Pcbnew,(5.1.9)-1
; #@! TF.FileFunction,Plated,1,2,PTH
FMAT,2
INCH
T1C0.0157
T2C0.0315
T3C0.0315
T4C0.0394
T5C0.0433
T6C0.0591
%
G90
G05
T1
X6.3593Y-1.753
X6.3593Y-3.1703
X6.8317Y-2.001
X6.8317Y-3.4183
X8.1575Y-1.752
X8.1575Y-3.1634
X8.6299Y-2.0
X8.6299Y-3.4114
T2
X6.2726Y-2.0632
X6.2726Y-2.3632
X6.2726Y-3.4805
X6.2726Y-3.7805
X6.3726Y-2.0632
X6.3726Y-2.3632
X6.3726Y-3.4805
X6.3726Y-3.7805
X6.4726Y-2.0632
X6.4726Y-2.3632
X6.4726Y-3.4805
X6.4726Y-3.7805
X6.5726Y-2.0632
X6.5726Y-2.3632
X6.5726Y-3.4805
X6.5726Y-3.7805
X6.6726Y-2.0632
X6.6726Y-2.3632
X6.6726Y-3.4805
X6.6726Y-3.7805
X6.7726Y-2.0632
X6.7726Y-2.3632
X6.7726Y-3.4805
X6.7726Y-3.7805
X6.8726Y-2.0632
X6.8726Y-2.3632
X6.8726Y-3.4805
X6.8726Y-3.7805
X6.9726Y-2.0632
X6.9726Y-2.3632
X6.9726Y-3.4805
X6.9726Y-3.7805
X7.0726Y-2.0632
X7.0726Y-2.3632
X7.0726Y-3.4805
X7.0726Y-3.7805
X7.1726Y-2.0632
X7.1726Y-2.3632
X7.1726Y-3.4805
X7.1726Y-3.7805
X8.0709Y-2.0622
X8.0709Y-2.3622
X8.0709Y-3.4736
X8.0709Y-3.7736
X8.1709Y-2.0622
X8.1709Y-2.3622
X8.1709Y-3.4736
X8.1709Y-3.7736
X8.2709Y-2.0622
X8.2709Y-2.3622
X8.2709Y-3.4736
X8.2709Y-3.7736
X8.3709Y-2.0622
X8.3709Y-2.3622
X8.3709Y-3.4736
X8.3709Y-3.7736
X8.4709Y-2.0622
X8.4709Y-2.3622
X8.4709Y-3.4736
X8.4709Y-3.7736
X8.5709Y-2.0622
X8.5709Y-2.3622
X8.5709Y-3.4736
X8.5709Y-3.7736
X8.6709Y-2.0622
X8.6709Y-2.3622
X8.6709Y-3.4736
X8.6709Y-3.7736
X8.7709Y-2.0622
X8.7709Y-2.3622
X8.7709Y-3.4736
X8.7709Y-3.7736
X8.8709Y-2.0622
X8.8709Y-2.3622
X8.8709Y-3.4736
X8.8709Y-3.7736
X8.9709Y-2.0622
X8.9709Y-2.3622
X8.9709Y-3.4736
X8.9709Y-3.7736
T3
X6.3805Y-1.2561
X6.3805Y-1.8561
X6.3805Y-2.6734
X6.3805Y-3.2734
X6.4805Y-1.2561
X6.4805Y-1.8561
X6.4805Y-2.6734
X6.4805Y-3.2734
X6.5805Y-1.2561
X6.5805Y-1.8561
X6.5805Y-2.6734
X6.5805Y-3.2734
X6.6805Y-1.2561
X6.6805Y-1.8561
X6.6805Y-2.6734
X6.6805Y-3.2734
X6.7805Y-1.2561
X6.7805Y-1.8561
X6.7805Y-2.6734
X6.7805Y-3.2734
X6.8797Y-1.2561
X6.8797Y-1.8561
X6.8797Y-2.6734
X6.8797Y-3.2734
X6.9797Y-1.2561
X6.9797Y-1.8561
X6.9797Y-2.6734
X6.9797Y-3.2734
X7.0797Y-1.2561
X7.0797Y-1.8561
X7.0797Y-2.6734
X7.0797Y-3.2734
X7.1797Y-1.2561
X7.1797Y-1.8561
X7.1797Y-2.6734
X7.1797Y-3.2734
X7.2797Y-1.2561
X7.2797Y-1.8561
X7.2797Y-2.6734
X7.2797Y-3.2734
X7.3789Y-1.2561
X7.3789Y-1.8561
X7.3789Y-2.6734
X7.3789Y-3.2734
X7.4789Y-1.2561
X7.4789Y-1.8561
X7.4789Y-2.6734
X7.4789Y-3.2734
X7.5789Y-1.2561
X7.5789Y-1.8561
X7.5789Y-2.6734
X7.5789Y-3.2734
X7.6789Y-1.2561
X7.6789Y-1.8561
X7.6789Y-2.6734
X7.6789Y-3.2734
X7.7789Y-1.2561
X7.7789Y-1.8561
X7.7789Y-2.6734
X7.7789Y-3.2734
X8.1787Y-1.2551
X8.1787Y-1.8551
X8.1787Y-2.6665
X8.1787Y-3.2665
X8.2787Y-1.2551
X8.2787Y-1.8551
X8.2787Y-2.6665
X8.2787Y-3.2665
X8.3787Y-1.2551
X8.3787Y-1.8551
X8.3787Y-2.6665
X8.3787Y-3.2665
X8.4787Y-1.2551
X8.4787Y-1.8551
X8.4787Y-2.6665
X8.4787Y-3.2665
X8.5787Y-1.2551
X8.5787Y-1.8551
X8.5787Y-2.6665
X8.5787Y-3.2665
X8.678Y-1.2551
X8.678Y-1.8551
X8.678Y-2.6665
X8.678Y-3.2665
X8.778Y-1.2551
X8.778Y-1.8551
X8.778Y-2.6665
X8.778Y-3.2665
X8.878Y-1.2551
X8.878Y-1.8551
X8.878Y-2.6665
X8.878Y-3.2665
X8.978Y-1.2551
X8.978Y-1.8551
X8.978Y-2.6665
X8.978Y-3.2665
X9.078Y-1.2551
X9.078Y-1.8551
X9.078Y-2.6665
X9.078Y-3.2665
X9.1772Y-1.2551
X9.1772Y-1.8551
X9.1772Y-2.6665
X9.1772Y-3.2665
X9.2772Y-1.2551
X9.2772Y-1.8551
X9.2772Y-2.6665
X9.2772Y-3.2665
X9.3772Y-1.2551
X9.3772Y-1.8551
X9.3772Y-2.6665
X9.3772Y-3.2665
X9.4772Y-1.2551
X9.4772Y-1.8551
X9.4772Y-2.6665
X9.4772Y-3.2665
X9.5772Y-1.2551
X9.5772Y-1.8551
X9.5772Y-2.6665
X9.5772Y-3.2665
T4
X6.2726Y-1.5758
X6.2726Y-1.6758
X6.2726Y-2.9931
X6.2726Y-3.0931
X8.0709Y-1.5748
X8.0709Y-1.6748
X8.0709Y-2.9862
X8.0709Y-3.0862
T5
X7.3356Y-2.1073
X7.3356Y-2.3632
X7.3356Y-3.5246
X7.3356Y-3.7805
X7.5128Y-2.1073
X7.5128Y-2.3632
X7.5128Y-3.5246
X7.5128Y-3.7805
X7.69Y-2.1073
X7.69Y-2.3632
X7.69Y-3.5246
X7.69Y-3.7805
X7.8671Y-2.1073
X7.8671Y-2.3632
X7.8671Y-3.5246
X7.8671Y-3.7805
X9.1339Y-2.1063
X9.1339Y-2.3622
X9.1339Y-3.5177
X9.1339Y-3.7736
X9.311Y-2.1063
X9.311Y-2.3622
X9.311Y-3.5177
X9.311Y-3.7736
X9.4882Y-2.1063
X9.4882Y-2.3622
X9.4882Y-3.5177
X9.4882Y-3.7736
X9.6654Y-2.1063
X9.6654Y-2.3622
X9.6654Y-3.5177
X9.6654Y-3.7736
T6
X6.6663Y-1.5758
X6.6663Y-2.9931
X7.473Y-1.5758
X7.473Y-2.9931
X8.4646Y-1.5748
X8.4646Y-2.9862
X9.2713Y-1.5748
X9.2713Y-2.9862
T0
M30
