G04 #@! TF.GenerationSoftware,KiCad,Pcbnew,(5.1.9)-1*
G04 #@! TF.CreationDate,2021-06-20T07:06:55+07:00*
G04 #@! TF.ProjectId,tally,74616c6c-792e-46b6-9963-61645f706362,rev?*
G04 #@! TF.SameCoordinates,Original*
G04 #@! TF.FileFunction,Legend,Top*
G04 #@! TF.FilePolarity,Positive*
%FSLAX46Y46*%
G04 Gerber Fmt 4.6, Leading zero omitted, Abs format (unit mm)*
G04 Created by KiCad (PCBNEW (5.1.9)-1) date 2021-06-20 07:06:55*
%MOMM*%
%LPD*%
G01*
G04 APERTURE LIST*
%ADD10C,0.120000*%
%ADD11C,0.300000*%
%ADD12C,0.250000*%
%ADD13C,0.322580*%
%ADD14C,1.399540*%
%ADD15C,0.304800*%
%ADD16C,1.000760*%
%ADD17C,0.150000*%
G04 APERTURE END LIST*
D10*
X202250000Y-99000000D02*
X202325000Y-28025000D01*
X203000000Y-28000000D02*
X203000000Y-99000000D01*
X248000000Y-63850000D02*
X157000000Y-64000000D01*
X157000000Y-63000000D02*
X248000000Y-63000000D01*
X157325000Y-64025000D02*
X202325000Y-64025000D01*
D11*
X158467857Y-73167857D02*
X158467857Y-74310714D01*
X157896428Y-73739285D02*
X159039285Y-73739285D01*
X158467857Y-80739285D02*
X158467857Y-81882142D01*
D12*
X159253571Y-67775000D02*
X159253571Y-68536904D01*
X159539285Y-69441666D02*
X158872619Y-69441666D01*
X159539285Y-69013095D02*
X159015476Y-69013095D01*
X158920238Y-69060714D01*
X158872619Y-69155952D01*
X158872619Y-69298809D01*
X158920238Y-69394047D01*
X158967857Y-69441666D01*
X159158333Y-69870238D02*
X159158333Y-70346428D01*
X158872619Y-69775000D02*
X159872619Y-70108333D01*
X158872619Y-70441666D01*
X159253571Y-70775000D02*
X159253571Y-71536904D01*
X159539285Y-72013095D02*
X159253571Y-72775000D01*
X158967857Y-72013095D01*
X167420238Y-85977380D02*
X167991666Y-85977380D01*
X167705952Y-86977380D02*
X167705952Y-85977380D01*
X168753571Y-86977380D02*
X168753571Y-86453571D01*
X168705952Y-86358333D01*
X168610714Y-86310714D01*
X168420238Y-86310714D01*
X168325000Y-86358333D01*
X168753571Y-86929761D02*
X168658333Y-86977380D01*
X168420238Y-86977380D01*
X168325000Y-86929761D01*
X168277380Y-86834523D01*
X168277380Y-86739285D01*
X168325000Y-86644047D01*
X168420238Y-86596428D01*
X168658333Y-86596428D01*
X168753571Y-86548809D01*
X169372619Y-86977380D02*
X169277380Y-86929761D01*
X169229761Y-86834523D01*
X169229761Y-85977380D01*
X169896428Y-86977380D02*
X169801190Y-86929761D01*
X169753571Y-86834523D01*
X169753571Y-85977380D01*
X170182142Y-86310714D02*
X170420238Y-86977380D01*
X170658333Y-86310714D02*
X170420238Y-86977380D01*
X170325000Y-87215476D01*
X170277380Y-87263095D01*
X170182142Y-87310714D01*
X172372619Y-86882142D02*
X172325000Y-86929761D01*
X172182142Y-86977380D01*
X172086904Y-86977380D01*
X171944047Y-86929761D01*
X171848809Y-86834523D01*
X171801190Y-86739285D01*
X171753571Y-86548809D01*
X171753571Y-86405952D01*
X171801190Y-86215476D01*
X171848809Y-86120238D01*
X171944047Y-86025000D01*
X172086904Y-85977380D01*
X172182142Y-85977380D01*
X172325000Y-86025000D01*
X172372619Y-86072619D01*
X172944047Y-86977380D02*
X172848809Y-86929761D01*
X172801190Y-86882142D01*
X172753571Y-86786904D01*
X172753571Y-86501190D01*
X172801190Y-86405952D01*
X172848809Y-86358333D01*
X172944047Y-86310714D01*
X173086904Y-86310714D01*
X173182142Y-86358333D01*
X173229761Y-86405952D01*
X173277380Y-86501190D01*
X173277380Y-86786904D01*
X173229761Y-86882142D01*
X173182142Y-86929761D01*
X173086904Y-86977380D01*
X172944047Y-86977380D01*
X174134523Y-86310714D02*
X174134523Y-86977380D01*
X173705952Y-86310714D02*
X173705952Y-86834523D01*
X173753571Y-86929761D01*
X173848809Y-86977380D01*
X173991666Y-86977380D01*
X174086904Y-86929761D01*
X174134523Y-86882142D01*
X174610714Y-86310714D02*
X174610714Y-86977380D01*
X174610714Y-86405952D02*
X174658333Y-86358333D01*
X174753571Y-86310714D01*
X174896428Y-86310714D01*
X174991666Y-86358333D01*
X175039285Y-86453571D01*
X175039285Y-86977380D01*
X175372619Y-86310714D02*
X175753571Y-86310714D01*
X175515476Y-85977380D02*
X175515476Y-86834523D01*
X175563095Y-86929761D01*
X175658333Y-86977380D01*
X175753571Y-86977380D01*
X176467857Y-86929761D02*
X176372619Y-86977380D01*
X176182142Y-86977380D01*
X176086904Y-86929761D01*
X176039285Y-86834523D01*
X176039285Y-86453571D01*
X176086904Y-86358333D01*
X176182142Y-86310714D01*
X176372619Y-86310714D01*
X176467857Y-86358333D01*
X176515476Y-86453571D01*
X176515476Y-86548809D01*
X176039285Y-86644047D01*
X176944047Y-86977380D02*
X176944047Y-86310714D01*
X176944047Y-86501190D02*
X176991666Y-86405952D01*
X177039285Y-86358333D01*
X177134523Y-86310714D01*
X177229761Y-86310714D01*
D11*
X188110714Y-87560714D02*
X188039285Y-87632142D01*
X187825000Y-87703571D01*
X187682142Y-87703571D01*
X187467857Y-87632142D01*
X187325000Y-87489285D01*
X187253571Y-87346428D01*
X187182142Y-87060714D01*
X187182142Y-86846428D01*
X187253571Y-86560714D01*
X187325000Y-86417857D01*
X187467857Y-86275000D01*
X187682142Y-86203571D01*
X187825000Y-86203571D01*
X188039285Y-86275000D01*
X188110714Y-86346428D01*
X188753571Y-87703571D02*
X188753571Y-86203571D01*
X189610714Y-87703571D01*
X189610714Y-86203571D01*
X190110714Y-86203571D02*
X190967857Y-86203571D01*
X190539285Y-87703571D02*
X190539285Y-86203571D01*
X196896428Y-87703571D02*
X196396428Y-86989285D01*
X196039285Y-87703571D02*
X196039285Y-86203571D01*
X196610714Y-86203571D01*
X196753571Y-86275000D01*
X196825000Y-86346428D01*
X196896428Y-86489285D01*
X196896428Y-86703571D01*
X196825000Y-86846428D01*
X196753571Y-86917857D01*
X196610714Y-86989285D01*
X196039285Y-86989285D01*
X197467857Y-87632142D02*
X197682142Y-87703571D01*
X198039285Y-87703571D01*
X198182142Y-87632142D01*
X198253571Y-87560714D01*
X198325000Y-87417857D01*
X198325000Y-87275000D01*
X198253571Y-87132142D01*
X198182142Y-87060714D01*
X198039285Y-86989285D01*
X197753571Y-86917857D01*
X197610714Y-86846428D01*
X197539285Y-86775000D01*
X197467857Y-86632142D01*
X197467857Y-86489285D01*
X197539285Y-86346428D01*
X197610714Y-86275000D01*
X197753571Y-86203571D01*
X198110714Y-86203571D01*
X198325000Y-86275000D01*
X198753571Y-86203571D02*
X199610714Y-86203571D01*
X199182142Y-87703571D02*
X199182142Y-86203571D01*
D10*
X157325000Y-28025000D02*
X202325000Y-28025000D01*
D11*
X158467857Y-37167857D02*
X158467857Y-38310714D01*
X157896428Y-37739285D02*
X159039285Y-37739285D01*
X158467857Y-44739285D02*
X158467857Y-45882142D01*
D12*
X159253571Y-31775000D02*
X159253571Y-32536904D01*
X159539285Y-33441666D02*
X158872619Y-33441666D01*
X159539285Y-33013095D02*
X159015476Y-33013095D01*
X158920238Y-33060714D01*
X158872619Y-33155952D01*
X158872619Y-33298809D01*
X158920238Y-33394047D01*
X158967857Y-33441666D01*
X159158333Y-33870238D02*
X159158333Y-34346428D01*
X158872619Y-33775000D02*
X159872619Y-34108333D01*
X158872619Y-34441666D01*
X159253571Y-34775000D02*
X159253571Y-35536904D01*
X159539285Y-36013095D02*
X159253571Y-36775000D01*
X158967857Y-36013095D01*
X167420238Y-49977380D02*
X167991666Y-49977380D01*
X167705952Y-50977380D02*
X167705952Y-49977380D01*
X168753571Y-50977380D02*
X168753571Y-50453571D01*
X168705952Y-50358333D01*
X168610714Y-50310714D01*
X168420238Y-50310714D01*
X168325000Y-50358333D01*
X168753571Y-50929761D02*
X168658333Y-50977380D01*
X168420238Y-50977380D01*
X168325000Y-50929761D01*
X168277380Y-50834523D01*
X168277380Y-50739285D01*
X168325000Y-50644047D01*
X168420238Y-50596428D01*
X168658333Y-50596428D01*
X168753571Y-50548809D01*
X169372619Y-50977380D02*
X169277380Y-50929761D01*
X169229761Y-50834523D01*
X169229761Y-49977380D01*
X169896428Y-50977380D02*
X169801190Y-50929761D01*
X169753571Y-50834523D01*
X169753571Y-49977380D01*
X170182142Y-50310714D02*
X170420238Y-50977380D01*
X170658333Y-50310714D02*
X170420238Y-50977380D01*
X170325000Y-51215476D01*
X170277380Y-51263095D01*
X170182142Y-51310714D01*
X172372619Y-50882142D02*
X172325000Y-50929761D01*
X172182142Y-50977380D01*
X172086904Y-50977380D01*
X171944047Y-50929761D01*
X171848809Y-50834523D01*
X171801190Y-50739285D01*
X171753571Y-50548809D01*
X171753571Y-50405952D01*
X171801190Y-50215476D01*
X171848809Y-50120238D01*
X171944047Y-50025000D01*
X172086904Y-49977380D01*
X172182142Y-49977380D01*
X172325000Y-50025000D01*
X172372619Y-50072619D01*
X172944047Y-50977380D02*
X172848809Y-50929761D01*
X172801190Y-50882142D01*
X172753571Y-50786904D01*
X172753571Y-50501190D01*
X172801190Y-50405952D01*
X172848809Y-50358333D01*
X172944047Y-50310714D01*
X173086904Y-50310714D01*
X173182142Y-50358333D01*
X173229761Y-50405952D01*
X173277380Y-50501190D01*
X173277380Y-50786904D01*
X173229761Y-50882142D01*
X173182142Y-50929761D01*
X173086904Y-50977380D01*
X172944047Y-50977380D01*
X174134523Y-50310714D02*
X174134523Y-50977380D01*
X173705952Y-50310714D02*
X173705952Y-50834523D01*
X173753571Y-50929761D01*
X173848809Y-50977380D01*
X173991666Y-50977380D01*
X174086904Y-50929761D01*
X174134523Y-50882142D01*
X174610714Y-50310714D02*
X174610714Y-50977380D01*
X174610714Y-50405952D02*
X174658333Y-50358333D01*
X174753571Y-50310714D01*
X174896428Y-50310714D01*
X174991666Y-50358333D01*
X175039285Y-50453571D01*
X175039285Y-50977380D01*
X175372619Y-50310714D02*
X175753571Y-50310714D01*
X175515476Y-49977380D02*
X175515476Y-50834523D01*
X175563095Y-50929761D01*
X175658333Y-50977380D01*
X175753571Y-50977380D01*
X176467857Y-50929761D02*
X176372619Y-50977380D01*
X176182142Y-50977380D01*
X176086904Y-50929761D01*
X176039285Y-50834523D01*
X176039285Y-50453571D01*
X176086904Y-50358333D01*
X176182142Y-50310714D01*
X176372619Y-50310714D01*
X176467857Y-50358333D01*
X176515476Y-50453571D01*
X176515476Y-50548809D01*
X176039285Y-50644047D01*
X176944047Y-50977380D02*
X176944047Y-50310714D01*
X176944047Y-50501190D02*
X176991666Y-50405952D01*
X177039285Y-50358333D01*
X177134523Y-50310714D01*
X177229761Y-50310714D01*
D11*
X188110714Y-51560714D02*
X188039285Y-51632142D01*
X187825000Y-51703571D01*
X187682142Y-51703571D01*
X187467857Y-51632142D01*
X187325000Y-51489285D01*
X187253571Y-51346428D01*
X187182142Y-51060714D01*
X187182142Y-50846428D01*
X187253571Y-50560714D01*
X187325000Y-50417857D01*
X187467857Y-50275000D01*
X187682142Y-50203571D01*
X187825000Y-50203571D01*
X188039285Y-50275000D01*
X188110714Y-50346428D01*
X188753571Y-51703571D02*
X188753571Y-50203571D01*
X189610714Y-51703571D01*
X189610714Y-50203571D01*
X190110714Y-50203571D02*
X190967857Y-50203571D01*
X190539285Y-51703571D02*
X190539285Y-50203571D01*
X196896428Y-51703571D02*
X196396428Y-50989285D01*
X196039285Y-51703571D02*
X196039285Y-50203571D01*
X196610714Y-50203571D01*
X196753571Y-50275000D01*
X196825000Y-50346428D01*
X196896428Y-50489285D01*
X196896428Y-50703571D01*
X196825000Y-50846428D01*
X196753571Y-50917857D01*
X196610714Y-50989285D01*
X196039285Y-50989285D01*
X197467857Y-51632142D02*
X197682142Y-51703571D01*
X198039285Y-51703571D01*
X198182142Y-51632142D01*
X198253571Y-51560714D01*
X198325000Y-51417857D01*
X198325000Y-51275000D01*
X198253571Y-51132142D01*
X198182142Y-51060714D01*
X198039285Y-50989285D01*
X197753571Y-50917857D01*
X197610714Y-50846428D01*
X197539285Y-50775000D01*
X197467857Y-50632142D01*
X197467857Y-50489285D01*
X197539285Y-50346428D01*
X197610714Y-50275000D01*
X197753571Y-50203571D01*
X198110714Y-50203571D01*
X198325000Y-50275000D01*
X198753571Y-50203571D02*
X199610714Y-50203571D01*
X199182142Y-51703571D02*
X199182142Y-50203571D01*
D10*
X203000000Y-63850000D02*
X248000000Y-63850000D01*
D11*
X204142857Y-72992857D02*
X204142857Y-74135714D01*
X203571428Y-73564285D02*
X204714285Y-73564285D01*
X204142857Y-80564285D02*
X204142857Y-81707142D01*
D12*
X204928571Y-67600000D02*
X204928571Y-68361904D01*
X205214285Y-69266666D02*
X204547619Y-69266666D01*
X205214285Y-68838095D02*
X204690476Y-68838095D01*
X204595238Y-68885714D01*
X204547619Y-68980952D01*
X204547619Y-69123809D01*
X204595238Y-69219047D01*
X204642857Y-69266666D01*
X204833333Y-69695238D02*
X204833333Y-70171428D01*
X204547619Y-69600000D02*
X205547619Y-69933333D01*
X204547619Y-70266666D01*
X204928571Y-70600000D02*
X204928571Y-71361904D01*
X205214285Y-71838095D02*
X204928571Y-72600000D01*
X204642857Y-71838095D01*
X213095238Y-85802380D02*
X213666666Y-85802380D01*
X213380952Y-86802380D02*
X213380952Y-85802380D01*
X214428571Y-86802380D02*
X214428571Y-86278571D01*
X214380952Y-86183333D01*
X214285714Y-86135714D01*
X214095238Y-86135714D01*
X214000000Y-86183333D01*
X214428571Y-86754761D02*
X214333333Y-86802380D01*
X214095238Y-86802380D01*
X214000000Y-86754761D01*
X213952380Y-86659523D01*
X213952380Y-86564285D01*
X214000000Y-86469047D01*
X214095238Y-86421428D01*
X214333333Y-86421428D01*
X214428571Y-86373809D01*
X215047619Y-86802380D02*
X214952380Y-86754761D01*
X214904761Y-86659523D01*
X214904761Y-85802380D01*
X215571428Y-86802380D02*
X215476190Y-86754761D01*
X215428571Y-86659523D01*
X215428571Y-85802380D01*
X215857142Y-86135714D02*
X216095238Y-86802380D01*
X216333333Y-86135714D02*
X216095238Y-86802380D01*
X216000000Y-87040476D01*
X215952380Y-87088095D01*
X215857142Y-87135714D01*
X218047619Y-86707142D02*
X218000000Y-86754761D01*
X217857142Y-86802380D01*
X217761904Y-86802380D01*
X217619047Y-86754761D01*
X217523809Y-86659523D01*
X217476190Y-86564285D01*
X217428571Y-86373809D01*
X217428571Y-86230952D01*
X217476190Y-86040476D01*
X217523809Y-85945238D01*
X217619047Y-85850000D01*
X217761904Y-85802380D01*
X217857142Y-85802380D01*
X218000000Y-85850000D01*
X218047619Y-85897619D01*
X218619047Y-86802380D02*
X218523809Y-86754761D01*
X218476190Y-86707142D01*
X218428571Y-86611904D01*
X218428571Y-86326190D01*
X218476190Y-86230952D01*
X218523809Y-86183333D01*
X218619047Y-86135714D01*
X218761904Y-86135714D01*
X218857142Y-86183333D01*
X218904761Y-86230952D01*
X218952380Y-86326190D01*
X218952380Y-86611904D01*
X218904761Y-86707142D01*
X218857142Y-86754761D01*
X218761904Y-86802380D01*
X218619047Y-86802380D01*
X219809523Y-86135714D02*
X219809523Y-86802380D01*
X219380952Y-86135714D02*
X219380952Y-86659523D01*
X219428571Y-86754761D01*
X219523809Y-86802380D01*
X219666666Y-86802380D01*
X219761904Y-86754761D01*
X219809523Y-86707142D01*
X220285714Y-86135714D02*
X220285714Y-86802380D01*
X220285714Y-86230952D02*
X220333333Y-86183333D01*
X220428571Y-86135714D01*
X220571428Y-86135714D01*
X220666666Y-86183333D01*
X220714285Y-86278571D01*
X220714285Y-86802380D01*
X221047619Y-86135714D02*
X221428571Y-86135714D01*
X221190476Y-85802380D02*
X221190476Y-86659523D01*
X221238095Y-86754761D01*
X221333333Y-86802380D01*
X221428571Y-86802380D01*
X222142857Y-86754761D02*
X222047619Y-86802380D01*
X221857142Y-86802380D01*
X221761904Y-86754761D01*
X221714285Y-86659523D01*
X221714285Y-86278571D01*
X221761904Y-86183333D01*
X221857142Y-86135714D01*
X222047619Y-86135714D01*
X222142857Y-86183333D01*
X222190476Y-86278571D01*
X222190476Y-86373809D01*
X221714285Y-86469047D01*
X222619047Y-86802380D02*
X222619047Y-86135714D01*
X222619047Y-86326190D02*
X222666666Y-86230952D01*
X222714285Y-86183333D01*
X222809523Y-86135714D01*
X222904761Y-86135714D01*
D11*
X233785714Y-87385714D02*
X233714285Y-87457142D01*
X233500000Y-87528571D01*
X233357142Y-87528571D01*
X233142857Y-87457142D01*
X233000000Y-87314285D01*
X232928571Y-87171428D01*
X232857142Y-86885714D01*
X232857142Y-86671428D01*
X232928571Y-86385714D01*
X233000000Y-86242857D01*
X233142857Y-86100000D01*
X233357142Y-86028571D01*
X233500000Y-86028571D01*
X233714285Y-86100000D01*
X233785714Y-86171428D01*
X234428571Y-87528571D02*
X234428571Y-86028571D01*
X235285714Y-87528571D01*
X235285714Y-86028571D01*
X235785714Y-86028571D02*
X236642857Y-86028571D01*
X236214285Y-87528571D02*
X236214285Y-86028571D01*
X242571428Y-87528571D02*
X242071428Y-86814285D01*
X241714285Y-87528571D02*
X241714285Y-86028571D01*
X242285714Y-86028571D01*
X242428571Y-86100000D01*
X242500000Y-86171428D01*
X242571428Y-86314285D01*
X242571428Y-86528571D01*
X242500000Y-86671428D01*
X242428571Y-86742857D01*
X242285714Y-86814285D01*
X241714285Y-86814285D01*
X243142857Y-87457142D02*
X243357142Y-87528571D01*
X243714285Y-87528571D01*
X243857142Y-87457142D01*
X243928571Y-87385714D01*
X244000000Y-87242857D01*
X244000000Y-87100000D01*
X243928571Y-86957142D01*
X243857142Y-86885714D01*
X243714285Y-86814285D01*
X243428571Y-86742857D01*
X243285714Y-86671428D01*
X243214285Y-86600000D01*
X243142857Y-86457142D01*
X243142857Y-86314285D01*
X243214285Y-86171428D01*
X243285714Y-86100000D01*
X243428571Y-86028571D01*
X243785714Y-86028571D01*
X244000000Y-86100000D01*
X244428571Y-86028571D02*
X245285714Y-86028571D01*
X244857142Y-87528571D02*
X244857142Y-86028571D01*
D10*
X157000000Y-28000000D02*
X203000000Y-28000000D01*
X157000000Y-99000000D02*
X157000000Y-28000000D01*
X248000000Y-99000000D02*
X157000000Y-99000000D01*
X248000000Y-28000000D02*
X248000000Y-99000000D01*
X203000000Y-28000000D02*
X248000000Y-28000000D01*
D12*
X213095238Y-49952380D02*
X213666666Y-49952380D01*
X213380952Y-50952380D02*
X213380952Y-49952380D01*
X214428571Y-50952380D02*
X214428571Y-50428571D01*
X214380952Y-50333333D01*
X214285714Y-50285714D01*
X214095238Y-50285714D01*
X214000000Y-50333333D01*
X214428571Y-50904761D02*
X214333333Y-50952380D01*
X214095238Y-50952380D01*
X214000000Y-50904761D01*
X213952380Y-50809523D01*
X213952380Y-50714285D01*
X214000000Y-50619047D01*
X214095238Y-50571428D01*
X214333333Y-50571428D01*
X214428571Y-50523809D01*
X215047619Y-50952380D02*
X214952380Y-50904761D01*
X214904761Y-50809523D01*
X214904761Y-49952380D01*
X215571428Y-50952380D02*
X215476190Y-50904761D01*
X215428571Y-50809523D01*
X215428571Y-49952380D01*
X215857142Y-50285714D02*
X216095238Y-50952380D01*
X216333333Y-50285714D02*
X216095238Y-50952380D01*
X216000000Y-51190476D01*
X215952380Y-51238095D01*
X215857142Y-51285714D01*
X218047619Y-50857142D02*
X218000000Y-50904761D01*
X217857142Y-50952380D01*
X217761904Y-50952380D01*
X217619047Y-50904761D01*
X217523809Y-50809523D01*
X217476190Y-50714285D01*
X217428571Y-50523809D01*
X217428571Y-50380952D01*
X217476190Y-50190476D01*
X217523809Y-50095238D01*
X217619047Y-50000000D01*
X217761904Y-49952380D01*
X217857142Y-49952380D01*
X218000000Y-50000000D01*
X218047619Y-50047619D01*
X218619047Y-50952380D02*
X218523809Y-50904761D01*
X218476190Y-50857142D01*
X218428571Y-50761904D01*
X218428571Y-50476190D01*
X218476190Y-50380952D01*
X218523809Y-50333333D01*
X218619047Y-50285714D01*
X218761904Y-50285714D01*
X218857142Y-50333333D01*
X218904761Y-50380952D01*
X218952380Y-50476190D01*
X218952380Y-50761904D01*
X218904761Y-50857142D01*
X218857142Y-50904761D01*
X218761904Y-50952380D01*
X218619047Y-50952380D01*
X219809523Y-50285714D02*
X219809523Y-50952380D01*
X219380952Y-50285714D02*
X219380952Y-50809523D01*
X219428571Y-50904761D01*
X219523809Y-50952380D01*
X219666666Y-50952380D01*
X219761904Y-50904761D01*
X219809523Y-50857142D01*
X220285714Y-50285714D02*
X220285714Y-50952380D01*
X220285714Y-50380952D02*
X220333333Y-50333333D01*
X220428571Y-50285714D01*
X220571428Y-50285714D01*
X220666666Y-50333333D01*
X220714285Y-50428571D01*
X220714285Y-50952380D01*
X221047619Y-50285714D02*
X221428571Y-50285714D01*
X221190476Y-49952380D02*
X221190476Y-50809523D01*
X221238095Y-50904761D01*
X221333333Y-50952380D01*
X221428571Y-50952380D01*
X222142857Y-50904761D02*
X222047619Y-50952380D01*
X221857142Y-50952380D01*
X221761904Y-50904761D01*
X221714285Y-50809523D01*
X221714285Y-50428571D01*
X221761904Y-50333333D01*
X221857142Y-50285714D01*
X222047619Y-50285714D01*
X222142857Y-50333333D01*
X222190476Y-50428571D01*
X222190476Y-50523809D01*
X221714285Y-50619047D01*
X222619047Y-50952380D02*
X222619047Y-50285714D01*
X222619047Y-50476190D02*
X222666666Y-50380952D01*
X222714285Y-50333333D01*
X222809523Y-50285714D01*
X222904761Y-50285714D01*
X204928571Y-31750000D02*
X204928571Y-32511904D01*
X205214285Y-33416666D02*
X204547619Y-33416666D01*
X205214285Y-32988095D02*
X204690476Y-32988095D01*
X204595238Y-33035714D01*
X204547619Y-33130952D01*
X204547619Y-33273809D01*
X204595238Y-33369047D01*
X204642857Y-33416666D01*
X204833333Y-33845238D02*
X204833333Y-34321428D01*
X204547619Y-33750000D02*
X205547619Y-34083333D01*
X204547619Y-34416666D01*
X204928571Y-34750000D02*
X204928571Y-35511904D01*
X205214285Y-35988095D02*
X204928571Y-36750000D01*
X204642857Y-35988095D01*
D11*
X204142857Y-37142857D02*
X204142857Y-38285714D01*
X203571428Y-37714285D02*
X204714285Y-37714285D01*
X204142857Y-44714285D02*
X204142857Y-45857142D01*
X233785714Y-51535714D02*
X233714285Y-51607142D01*
X233500000Y-51678571D01*
X233357142Y-51678571D01*
X233142857Y-51607142D01*
X233000000Y-51464285D01*
X232928571Y-51321428D01*
X232857142Y-51035714D01*
X232857142Y-50821428D01*
X232928571Y-50535714D01*
X233000000Y-50392857D01*
X233142857Y-50250000D01*
X233357142Y-50178571D01*
X233500000Y-50178571D01*
X233714285Y-50250000D01*
X233785714Y-50321428D01*
X234428571Y-51678571D02*
X234428571Y-50178571D01*
X235285714Y-51678571D01*
X235285714Y-50178571D01*
X235785714Y-50178571D02*
X236642857Y-50178571D01*
X236214285Y-51678571D02*
X236214285Y-50178571D01*
X242571428Y-51678571D02*
X242071428Y-50964285D01*
X241714285Y-51678571D02*
X241714285Y-50178571D01*
X242285714Y-50178571D01*
X242428571Y-50250000D01*
X242500000Y-50321428D01*
X242571428Y-50464285D01*
X242571428Y-50678571D01*
X242500000Y-50821428D01*
X242428571Y-50892857D01*
X242285714Y-50964285D01*
X241714285Y-50964285D01*
X243142857Y-51607142D02*
X243357142Y-51678571D01*
X243714285Y-51678571D01*
X243857142Y-51607142D01*
X243928571Y-51535714D01*
X244000000Y-51392857D01*
X244000000Y-51250000D01*
X243928571Y-51107142D01*
X243857142Y-51035714D01*
X243714285Y-50964285D01*
X243428571Y-50892857D01*
X243285714Y-50821428D01*
X243214285Y-50750000D01*
X243142857Y-50607142D01*
X243142857Y-50464285D01*
X243214285Y-50321428D01*
X243285714Y-50250000D01*
X243428571Y-50178571D01*
X243785714Y-50178571D01*
X244000000Y-50250000D01*
X244428571Y-50178571D02*
X245285714Y-50178571D01*
X244857142Y-51678571D02*
X244857142Y-50178571D01*
D13*
X186175000Y-66000000D02*
X186175000Y-85050000D01*
X173475000Y-85050000D02*
X173475000Y-66000000D01*
D14*
X183635000Y-75525000D02*
X176015000Y-75525000D01*
X176777000Y-69683000D02*
X175253000Y-81367000D01*
X175253000Y-81367000D02*
X182873000Y-81367000D01*
X182873000Y-81367000D02*
X184397000Y-69683000D01*
X184397000Y-69683000D02*
X176777000Y-69683000D01*
D15*
X174745000Y-85050000D02*
X173475000Y-83780000D01*
D16*
X185137210Y-81240000D02*
G75*
G03*
X185137210Y-81240000I-359210J0D01*
G01*
D15*
X173983000Y-85050000D02*
X173475000Y-84542000D01*
X174364000Y-85050000D02*
X173475000Y-84161000D01*
D13*
X173475000Y-85050000D02*
X186175000Y-85050000D01*
X186175000Y-66000000D02*
X173475000Y-66000000D01*
D10*
X191825000Y-95025000D02*
X191825000Y-90525000D01*
X187825000Y-96275000D02*
X189325000Y-96275000D01*
X185325000Y-90525000D02*
X185325000Y-95025000D01*
X189325000Y-89275000D02*
X187825000Y-89275000D01*
X198325000Y-89275000D02*
X196825000Y-89275000D01*
X194325000Y-90525000D02*
X194325000Y-95025000D01*
X196825000Y-96275000D02*
X198325000Y-96275000D01*
X200825000Y-95025000D02*
X200825000Y-90525000D01*
X157995000Y-79895000D02*
X160655000Y-79895000D01*
X157995000Y-77295000D02*
X157995000Y-79895000D01*
X160655000Y-77295000D02*
X160655000Y-79895000D01*
X157995000Y-77295000D02*
X160655000Y-77295000D01*
X157995000Y-76025000D02*
X157995000Y-74695000D01*
X157995000Y-74695000D02*
X159325000Y-74695000D01*
X157995000Y-93215000D02*
X157995000Y-94865000D01*
X157995000Y-94865000D02*
X183515000Y-94865000D01*
X183515000Y-94865000D02*
X183515000Y-89565000D01*
X183515000Y-89565000D02*
X157995000Y-89565000D01*
X157995000Y-89565000D02*
X157995000Y-91215000D01*
X157995000Y-91215000D02*
G75*
G02*
X157995000Y-93215000I0J-1000000D01*
G01*
D13*
X198855000Y-66000000D02*
X186155000Y-66000000D01*
X186155000Y-85050000D02*
X198855000Y-85050000D01*
D15*
X187044000Y-85050000D02*
X186155000Y-84161000D01*
X186663000Y-85050000D02*
X186155000Y-84542000D01*
D16*
X197817210Y-81240000D02*
G75*
G03*
X197817210Y-81240000I-359210J0D01*
G01*
D15*
X187425000Y-85050000D02*
X186155000Y-83780000D01*
D14*
X197077000Y-69683000D02*
X189457000Y-69683000D01*
X195553000Y-81367000D02*
X197077000Y-69683000D01*
X187933000Y-81367000D02*
X195553000Y-81367000D01*
X189457000Y-69683000D02*
X187933000Y-81367000D01*
X196315000Y-75525000D02*
X188695000Y-75525000D01*
D13*
X186155000Y-85050000D02*
X186155000Y-66000000D01*
X198855000Y-66000000D02*
X198855000Y-85050000D01*
X173495000Y-66000000D02*
X160795000Y-66000000D01*
X160795000Y-85050000D02*
X173495000Y-85050000D01*
D15*
X161684000Y-85050000D02*
X160795000Y-84161000D01*
X161303000Y-85050000D02*
X160795000Y-84542000D01*
D16*
X172457210Y-81240000D02*
G75*
G03*
X172457210Y-81240000I-359210J0D01*
G01*
D15*
X162065000Y-85050000D02*
X160795000Y-83780000D01*
D14*
X171717000Y-69683000D02*
X164097000Y-69683000D01*
X170193000Y-81367000D02*
X171717000Y-69683000D01*
X162573000Y-81367000D02*
X170193000Y-81367000D01*
X164097000Y-69683000D02*
X162573000Y-81367000D01*
X170955000Y-75525000D02*
X163335000Y-75525000D01*
D13*
X160795000Y-85050000D02*
X160795000Y-66000000D01*
X173495000Y-66000000D02*
X173495000Y-85050000D01*
X186175000Y-30000000D02*
X186175000Y-49050000D01*
X173475000Y-49050000D02*
X173475000Y-30000000D01*
D14*
X183635000Y-39525000D02*
X176015000Y-39525000D01*
X176777000Y-33683000D02*
X175253000Y-45367000D01*
X175253000Y-45367000D02*
X182873000Y-45367000D01*
X182873000Y-45367000D02*
X184397000Y-33683000D01*
X184397000Y-33683000D02*
X176777000Y-33683000D01*
D15*
X174745000Y-49050000D02*
X173475000Y-47780000D01*
D16*
X185137210Y-45240000D02*
G75*
G03*
X185137210Y-45240000I-359210J0D01*
G01*
D15*
X173983000Y-49050000D02*
X173475000Y-48542000D01*
X174364000Y-49050000D02*
X173475000Y-48161000D01*
D13*
X173475000Y-49050000D02*
X186175000Y-49050000D01*
X186175000Y-30000000D02*
X173475000Y-30000000D01*
D10*
X191825000Y-59025000D02*
X191825000Y-54525000D01*
X187825000Y-60275000D02*
X189325000Y-60275000D01*
X185325000Y-54525000D02*
X185325000Y-59025000D01*
X189325000Y-53275000D02*
X187825000Y-53275000D01*
X198325000Y-53275000D02*
X196825000Y-53275000D01*
X194325000Y-54525000D02*
X194325000Y-59025000D01*
X196825000Y-60275000D02*
X198325000Y-60275000D01*
X200825000Y-59025000D02*
X200825000Y-54525000D01*
X157995000Y-43895000D02*
X160655000Y-43895000D01*
X157995000Y-41295000D02*
X157995000Y-43895000D01*
X160655000Y-41295000D02*
X160655000Y-43895000D01*
X157995000Y-41295000D02*
X160655000Y-41295000D01*
X157995000Y-40025000D02*
X157995000Y-38695000D01*
X157995000Y-38695000D02*
X159325000Y-38695000D01*
X157995000Y-57215000D02*
X157995000Y-58865000D01*
X157995000Y-58865000D02*
X183515000Y-58865000D01*
X183515000Y-58865000D02*
X183515000Y-53565000D01*
X183515000Y-53565000D02*
X157995000Y-53565000D01*
X157995000Y-53565000D02*
X157995000Y-55215000D01*
X157995000Y-55215000D02*
G75*
G02*
X157995000Y-57215000I0J-1000000D01*
G01*
D13*
X198855000Y-30000000D02*
X186155000Y-30000000D01*
X186155000Y-49050000D02*
X198855000Y-49050000D01*
D15*
X187044000Y-49050000D02*
X186155000Y-48161000D01*
X186663000Y-49050000D02*
X186155000Y-48542000D01*
D16*
X197817210Y-45240000D02*
G75*
G03*
X197817210Y-45240000I-359210J0D01*
G01*
D15*
X187425000Y-49050000D02*
X186155000Y-47780000D01*
D14*
X197077000Y-33683000D02*
X189457000Y-33683000D01*
X195553000Y-45367000D02*
X197077000Y-33683000D01*
X187933000Y-45367000D02*
X195553000Y-45367000D01*
X189457000Y-33683000D02*
X187933000Y-45367000D01*
X196315000Y-39525000D02*
X188695000Y-39525000D01*
D13*
X186155000Y-49050000D02*
X186155000Y-30000000D01*
X198855000Y-30000000D02*
X198855000Y-49050000D01*
X173495000Y-30000000D02*
X160795000Y-30000000D01*
X160795000Y-49050000D02*
X173495000Y-49050000D01*
D15*
X161684000Y-49050000D02*
X160795000Y-48161000D01*
X161303000Y-49050000D02*
X160795000Y-48542000D01*
D16*
X172457210Y-45240000D02*
G75*
G03*
X172457210Y-45240000I-359210J0D01*
G01*
D15*
X162065000Y-49050000D02*
X160795000Y-47780000D01*
D14*
X171717000Y-33683000D02*
X164097000Y-33683000D01*
X170193000Y-45367000D02*
X171717000Y-33683000D01*
X162573000Y-45367000D02*
X170193000Y-45367000D01*
X164097000Y-33683000D02*
X162573000Y-45367000D01*
X170955000Y-39525000D02*
X163335000Y-39525000D01*
D13*
X160795000Y-49050000D02*
X160795000Y-30000000D01*
X173495000Y-30000000D02*
X173495000Y-49050000D01*
X231850000Y-65825000D02*
X231850000Y-84875000D01*
X219150000Y-84875000D02*
X219150000Y-65825000D01*
D14*
X229310000Y-75350000D02*
X221690000Y-75350000D01*
X222452000Y-69508000D02*
X220928000Y-81192000D01*
X220928000Y-81192000D02*
X228548000Y-81192000D01*
X228548000Y-81192000D02*
X230072000Y-69508000D01*
X230072000Y-69508000D02*
X222452000Y-69508000D01*
D15*
X220420000Y-84875000D02*
X219150000Y-83605000D01*
D16*
X230812210Y-81065000D02*
G75*
G03*
X230812210Y-81065000I-359210J0D01*
G01*
D15*
X219658000Y-84875000D02*
X219150000Y-84367000D01*
X220039000Y-84875000D02*
X219150000Y-83986000D01*
D13*
X219150000Y-84875000D02*
X231850000Y-84875000D01*
X231850000Y-65825000D02*
X219150000Y-65825000D01*
D10*
X237500000Y-94850000D02*
X237500000Y-90350000D01*
X233500000Y-96100000D02*
X235000000Y-96100000D01*
X231000000Y-90350000D02*
X231000000Y-94850000D01*
X235000000Y-89100000D02*
X233500000Y-89100000D01*
X244000000Y-89100000D02*
X242500000Y-89100000D01*
X240000000Y-90350000D02*
X240000000Y-94850000D01*
X242500000Y-96100000D02*
X244000000Y-96100000D01*
X246500000Y-94850000D02*
X246500000Y-90350000D01*
X203670000Y-79720000D02*
X206330000Y-79720000D01*
X203670000Y-77120000D02*
X203670000Y-79720000D01*
X206330000Y-77120000D02*
X206330000Y-79720000D01*
X203670000Y-77120000D02*
X206330000Y-77120000D01*
X203670000Y-75850000D02*
X203670000Y-74520000D01*
X203670000Y-74520000D02*
X205000000Y-74520000D01*
X203670000Y-93040000D02*
X203670000Y-94690000D01*
X203670000Y-94690000D02*
X229190000Y-94690000D01*
X229190000Y-94690000D02*
X229190000Y-89390000D01*
X229190000Y-89390000D02*
X203670000Y-89390000D01*
X203670000Y-89390000D02*
X203670000Y-91040000D01*
X203670000Y-91040000D02*
G75*
G02*
X203670000Y-93040000I0J-1000000D01*
G01*
D13*
X244530000Y-65825000D02*
X231830000Y-65825000D01*
X231830000Y-84875000D02*
X244530000Y-84875000D01*
D15*
X232719000Y-84875000D02*
X231830000Y-83986000D01*
X232338000Y-84875000D02*
X231830000Y-84367000D01*
D16*
X243492210Y-81065000D02*
G75*
G03*
X243492210Y-81065000I-359210J0D01*
G01*
D15*
X233100000Y-84875000D02*
X231830000Y-83605000D01*
D14*
X242752000Y-69508000D02*
X235132000Y-69508000D01*
X241228000Y-81192000D02*
X242752000Y-69508000D01*
X233608000Y-81192000D02*
X241228000Y-81192000D01*
X235132000Y-69508000D02*
X233608000Y-81192000D01*
X241990000Y-75350000D02*
X234370000Y-75350000D01*
D13*
X231830000Y-84875000D02*
X231830000Y-65825000D01*
X244530000Y-65825000D02*
X244530000Y-84875000D01*
X219170000Y-65825000D02*
X206470000Y-65825000D01*
X206470000Y-84875000D02*
X219170000Y-84875000D01*
D15*
X207359000Y-84875000D02*
X206470000Y-83986000D01*
X206978000Y-84875000D02*
X206470000Y-84367000D01*
D16*
X218132210Y-81065000D02*
G75*
G03*
X218132210Y-81065000I-359210J0D01*
G01*
D15*
X207740000Y-84875000D02*
X206470000Y-83605000D01*
D14*
X217392000Y-69508000D02*
X209772000Y-69508000D01*
X215868000Y-81192000D02*
X217392000Y-69508000D01*
X208248000Y-81192000D02*
X215868000Y-81192000D01*
X209772000Y-69508000D02*
X208248000Y-81192000D01*
X216630000Y-75350000D02*
X209010000Y-75350000D01*
D13*
X206470000Y-84875000D02*
X206470000Y-65825000D01*
X219170000Y-65825000D02*
X219170000Y-84875000D01*
D10*
X203670000Y-43870000D02*
X206330000Y-43870000D01*
X203670000Y-41270000D02*
X203670000Y-43870000D01*
X206330000Y-41270000D02*
X206330000Y-43870000D01*
X203670000Y-41270000D02*
X206330000Y-41270000D01*
X203670000Y-40000000D02*
X203670000Y-38670000D01*
X203670000Y-38670000D02*
X205000000Y-38670000D01*
X244000000Y-53250000D02*
X242500000Y-53250000D01*
X240000000Y-54500000D02*
X240000000Y-59000000D01*
X242500000Y-60250000D02*
X244000000Y-60250000D01*
X246500000Y-59000000D02*
X246500000Y-54500000D01*
X237500000Y-59000000D02*
X237500000Y-54500000D01*
X233500000Y-60250000D02*
X235000000Y-60250000D01*
X231000000Y-54500000D02*
X231000000Y-59000000D01*
X235000000Y-53250000D02*
X233500000Y-53250000D01*
X203670000Y-57190000D02*
X203670000Y-58840000D01*
X203670000Y-58840000D02*
X229190000Y-58840000D01*
X229190000Y-58840000D02*
X229190000Y-53540000D01*
X229190000Y-53540000D02*
X203670000Y-53540000D01*
X203670000Y-53540000D02*
X203670000Y-55190000D01*
X203670000Y-55190000D02*
G75*
G02*
X203670000Y-57190000I0J-1000000D01*
G01*
D13*
X244530000Y-29975000D02*
X231830000Y-29975000D01*
X231830000Y-49025000D02*
X244530000Y-49025000D01*
D15*
X232719000Y-49025000D02*
X231830000Y-48136000D01*
X232338000Y-49025000D02*
X231830000Y-48517000D01*
D16*
X243492210Y-45215000D02*
G75*
G03*
X243492210Y-45215000I-359210J0D01*
G01*
D15*
X233100000Y-49025000D02*
X231830000Y-47755000D01*
D14*
X242752000Y-33658000D02*
X235132000Y-33658000D01*
X241228000Y-45342000D02*
X242752000Y-33658000D01*
X233608000Y-45342000D02*
X241228000Y-45342000D01*
X235132000Y-33658000D02*
X233608000Y-45342000D01*
X241990000Y-39500000D02*
X234370000Y-39500000D01*
D13*
X231830000Y-49025000D02*
X231830000Y-29975000D01*
X244530000Y-29975000D02*
X244530000Y-49025000D01*
X231850000Y-29975000D02*
X231850000Y-49025000D01*
X219150000Y-49025000D02*
X219150000Y-29975000D01*
D14*
X229310000Y-39500000D02*
X221690000Y-39500000D01*
X222452000Y-33658000D02*
X220928000Y-45342000D01*
X220928000Y-45342000D02*
X228548000Y-45342000D01*
X228548000Y-45342000D02*
X230072000Y-33658000D01*
X230072000Y-33658000D02*
X222452000Y-33658000D01*
D15*
X220420000Y-49025000D02*
X219150000Y-47755000D01*
D16*
X230812210Y-45215000D02*
G75*
G03*
X230812210Y-45215000I-359210J0D01*
G01*
D15*
X219658000Y-49025000D02*
X219150000Y-48517000D01*
X220039000Y-49025000D02*
X219150000Y-48136000D01*
D13*
X219150000Y-49025000D02*
X231850000Y-49025000D01*
X231850000Y-29975000D02*
X219150000Y-29975000D01*
X219170000Y-29975000D02*
X206470000Y-29975000D01*
X206470000Y-49025000D02*
X219170000Y-49025000D01*
D15*
X207359000Y-49025000D02*
X206470000Y-48136000D01*
X206978000Y-49025000D02*
X206470000Y-48517000D01*
D16*
X218132210Y-45215000D02*
G75*
G03*
X218132210Y-45215000I-359210J0D01*
G01*
D15*
X207740000Y-49025000D02*
X206470000Y-47755000D01*
D14*
X217392000Y-33658000D02*
X209772000Y-33658000D01*
X215868000Y-45342000D02*
X217392000Y-33658000D01*
X208248000Y-45342000D02*
X215868000Y-45342000D01*
X209772000Y-33658000D02*
X208248000Y-45342000D01*
X216630000Y-39500000D02*
X209010000Y-39500000D01*
D13*
X206470000Y-49025000D02*
X206470000Y-29975000D01*
X219170000Y-29975000D02*
X219170000Y-49025000D01*
D11*
X178682142Y-71703571D02*
X178682142Y-72917857D01*
X178753571Y-73060714D01*
X178825000Y-73132142D01*
X178967857Y-73203571D01*
X179253571Y-73203571D01*
X179396428Y-73132142D01*
X179467857Y-73060714D01*
X179539285Y-72917857D01*
X179539285Y-71703571D01*
X180896428Y-72203571D02*
X180896428Y-73203571D01*
X180539285Y-71632142D02*
X180182142Y-72703571D01*
X181110714Y-72703571D01*
D17*
X188729761Y-94108333D02*
X188777380Y-93965476D01*
X188777380Y-93727380D01*
X188729761Y-93632142D01*
X188682142Y-93584523D01*
X188586904Y-93536904D01*
X188491666Y-93536904D01*
X188396428Y-93584523D01*
X188348809Y-93632142D01*
X188301190Y-93727380D01*
X188253571Y-93917857D01*
X188205952Y-94013095D01*
X188158333Y-94060714D01*
X188063095Y-94108333D01*
X187967857Y-94108333D01*
X187872619Y-94060714D01*
X187825000Y-94013095D01*
X187777380Y-93917857D01*
X187777380Y-93679761D01*
X187825000Y-93536904D01*
X187777380Y-93203571D02*
X188777380Y-92965476D01*
X188063095Y-92775000D01*
X188777380Y-92584523D01*
X187777380Y-92346428D01*
X187872619Y-92013095D02*
X187825000Y-91965476D01*
X187777380Y-91870238D01*
X187777380Y-91632142D01*
X187825000Y-91536904D01*
X187872619Y-91489285D01*
X187967857Y-91441666D01*
X188063095Y-91441666D01*
X188205952Y-91489285D01*
X188777380Y-92060714D01*
X188777380Y-91441666D01*
X197729761Y-94108333D02*
X197777380Y-93965476D01*
X197777380Y-93727380D01*
X197729761Y-93632142D01*
X197682142Y-93584523D01*
X197586904Y-93536904D01*
X197491666Y-93536904D01*
X197396428Y-93584523D01*
X197348809Y-93632142D01*
X197301190Y-93727380D01*
X197253571Y-93917857D01*
X197205952Y-94013095D01*
X197158333Y-94060714D01*
X197063095Y-94108333D01*
X196967857Y-94108333D01*
X196872619Y-94060714D01*
X196825000Y-94013095D01*
X196777380Y-93917857D01*
X196777380Y-93679761D01*
X196825000Y-93536904D01*
X196777380Y-93203571D02*
X197777380Y-92965476D01*
X197063095Y-92775000D01*
X197777380Y-92584523D01*
X196777380Y-92346428D01*
X197777380Y-91441666D02*
X197777380Y-92013095D01*
X197777380Y-91727380D02*
X196777380Y-91727380D01*
X196920238Y-91822619D01*
X197015476Y-91917857D01*
X197063095Y-92013095D01*
X160777380Y-92786904D02*
X161586904Y-92786904D01*
X161682142Y-92739285D01*
X161729761Y-92691666D01*
X161777380Y-92596428D01*
X161777380Y-92405952D01*
X161729761Y-92310714D01*
X161682142Y-92263095D01*
X161586904Y-92215476D01*
X160777380Y-92215476D01*
X160872619Y-91786904D02*
X160825000Y-91739285D01*
X160777380Y-91644047D01*
X160777380Y-91405952D01*
X160825000Y-91310714D01*
X160872619Y-91263095D01*
X160967857Y-91215476D01*
X161063095Y-91215476D01*
X161205952Y-91263095D01*
X161777380Y-91834523D01*
X161777380Y-91215476D01*
D11*
X191662142Y-71703571D02*
X191662142Y-72917857D01*
X191733571Y-73060714D01*
X191805000Y-73132142D01*
X191947857Y-73203571D01*
X192233571Y-73203571D01*
X192376428Y-73132142D01*
X192447857Y-73060714D01*
X192519285Y-72917857D01*
X192519285Y-71703571D01*
X193090714Y-71703571D02*
X194019285Y-71703571D01*
X193519285Y-72275000D01*
X193733571Y-72275000D01*
X193876428Y-72346428D01*
X193947857Y-72417857D01*
X194019285Y-72560714D01*
X194019285Y-72917857D01*
X193947857Y-73060714D01*
X193876428Y-73132142D01*
X193733571Y-73203571D01*
X193305000Y-73203571D01*
X193162142Y-73132142D01*
X193090714Y-73060714D01*
X166452142Y-71853571D02*
X166452142Y-73067857D01*
X166523571Y-73210714D01*
X166595000Y-73282142D01*
X166737857Y-73353571D01*
X167023571Y-73353571D01*
X167166428Y-73282142D01*
X167237857Y-73210714D01*
X167309285Y-73067857D01*
X167309285Y-71853571D01*
X168737857Y-71853571D02*
X168023571Y-71853571D01*
X167952142Y-72567857D01*
X168023571Y-72496428D01*
X168166428Y-72425000D01*
X168523571Y-72425000D01*
X168666428Y-72496428D01*
X168737857Y-72567857D01*
X168809285Y-72710714D01*
X168809285Y-73067857D01*
X168737857Y-73210714D01*
X168666428Y-73282142D01*
X168523571Y-73353571D01*
X168166428Y-73353571D01*
X168023571Y-73282142D01*
X167952142Y-73210714D01*
X178682142Y-35703571D02*
X178682142Y-36917857D01*
X178753571Y-37060714D01*
X178825000Y-37132142D01*
X178967857Y-37203571D01*
X179253571Y-37203571D01*
X179396428Y-37132142D01*
X179467857Y-37060714D01*
X179539285Y-36917857D01*
X179539285Y-35703571D01*
X180896428Y-36203571D02*
X180896428Y-37203571D01*
X180539285Y-35632142D02*
X180182142Y-36703571D01*
X181110714Y-36703571D01*
D17*
X188729761Y-58108333D02*
X188777380Y-57965476D01*
X188777380Y-57727380D01*
X188729761Y-57632142D01*
X188682142Y-57584523D01*
X188586904Y-57536904D01*
X188491666Y-57536904D01*
X188396428Y-57584523D01*
X188348809Y-57632142D01*
X188301190Y-57727380D01*
X188253571Y-57917857D01*
X188205952Y-58013095D01*
X188158333Y-58060714D01*
X188063095Y-58108333D01*
X187967857Y-58108333D01*
X187872619Y-58060714D01*
X187825000Y-58013095D01*
X187777380Y-57917857D01*
X187777380Y-57679761D01*
X187825000Y-57536904D01*
X187777380Y-57203571D02*
X188777380Y-56965476D01*
X188063095Y-56775000D01*
X188777380Y-56584523D01*
X187777380Y-56346428D01*
X187872619Y-56013095D02*
X187825000Y-55965476D01*
X187777380Y-55870238D01*
X187777380Y-55632142D01*
X187825000Y-55536904D01*
X187872619Y-55489285D01*
X187967857Y-55441666D01*
X188063095Y-55441666D01*
X188205952Y-55489285D01*
X188777380Y-56060714D01*
X188777380Y-55441666D01*
X197729761Y-58108333D02*
X197777380Y-57965476D01*
X197777380Y-57727380D01*
X197729761Y-57632142D01*
X197682142Y-57584523D01*
X197586904Y-57536904D01*
X197491666Y-57536904D01*
X197396428Y-57584523D01*
X197348809Y-57632142D01*
X197301190Y-57727380D01*
X197253571Y-57917857D01*
X197205952Y-58013095D01*
X197158333Y-58060714D01*
X197063095Y-58108333D01*
X196967857Y-58108333D01*
X196872619Y-58060714D01*
X196825000Y-58013095D01*
X196777380Y-57917857D01*
X196777380Y-57679761D01*
X196825000Y-57536904D01*
X196777380Y-57203571D02*
X197777380Y-56965476D01*
X197063095Y-56775000D01*
X197777380Y-56584523D01*
X196777380Y-56346428D01*
X197777380Y-55441666D02*
X197777380Y-56013095D01*
X197777380Y-55727380D02*
X196777380Y-55727380D01*
X196920238Y-55822619D01*
X197015476Y-55917857D01*
X197063095Y-56013095D01*
X160777380Y-56786904D02*
X161586904Y-56786904D01*
X161682142Y-56739285D01*
X161729761Y-56691666D01*
X161777380Y-56596428D01*
X161777380Y-56405952D01*
X161729761Y-56310714D01*
X161682142Y-56263095D01*
X161586904Y-56215476D01*
X160777380Y-56215476D01*
X160872619Y-55786904D02*
X160825000Y-55739285D01*
X160777380Y-55644047D01*
X160777380Y-55405952D01*
X160825000Y-55310714D01*
X160872619Y-55263095D01*
X160967857Y-55215476D01*
X161063095Y-55215476D01*
X161205952Y-55263095D01*
X161777380Y-55834523D01*
X161777380Y-55215476D01*
D11*
X191662142Y-35703571D02*
X191662142Y-36917857D01*
X191733571Y-37060714D01*
X191805000Y-37132142D01*
X191947857Y-37203571D01*
X192233571Y-37203571D01*
X192376428Y-37132142D01*
X192447857Y-37060714D01*
X192519285Y-36917857D01*
X192519285Y-35703571D01*
X193090714Y-35703571D02*
X194019285Y-35703571D01*
X193519285Y-36275000D01*
X193733571Y-36275000D01*
X193876428Y-36346428D01*
X193947857Y-36417857D01*
X194019285Y-36560714D01*
X194019285Y-36917857D01*
X193947857Y-37060714D01*
X193876428Y-37132142D01*
X193733571Y-37203571D01*
X193305000Y-37203571D01*
X193162142Y-37132142D01*
X193090714Y-37060714D01*
X166452142Y-35853571D02*
X166452142Y-37067857D01*
X166523571Y-37210714D01*
X166595000Y-37282142D01*
X166737857Y-37353571D01*
X167023571Y-37353571D01*
X167166428Y-37282142D01*
X167237857Y-37210714D01*
X167309285Y-37067857D01*
X167309285Y-35853571D01*
X168737857Y-35853571D02*
X168023571Y-35853571D01*
X167952142Y-36567857D01*
X168023571Y-36496428D01*
X168166428Y-36425000D01*
X168523571Y-36425000D01*
X168666428Y-36496428D01*
X168737857Y-36567857D01*
X168809285Y-36710714D01*
X168809285Y-37067857D01*
X168737857Y-37210714D01*
X168666428Y-37282142D01*
X168523571Y-37353571D01*
X168166428Y-37353571D01*
X168023571Y-37282142D01*
X167952142Y-37210714D01*
X224357142Y-71528571D02*
X224357142Y-72742857D01*
X224428571Y-72885714D01*
X224500000Y-72957142D01*
X224642857Y-73028571D01*
X224928571Y-73028571D01*
X225071428Y-72957142D01*
X225142857Y-72885714D01*
X225214285Y-72742857D01*
X225214285Y-71528571D01*
X226571428Y-72028571D02*
X226571428Y-73028571D01*
X226214285Y-71457142D02*
X225857142Y-72528571D01*
X226785714Y-72528571D01*
D17*
X234404761Y-93933333D02*
X234452380Y-93790476D01*
X234452380Y-93552380D01*
X234404761Y-93457142D01*
X234357142Y-93409523D01*
X234261904Y-93361904D01*
X234166666Y-93361904D01*
X234071428Y-93409523D01*
X234023809Y-93457142D01*
X233976190Y-93552380D01*
X233928571Y-93742857D01*
X233880952Y-93838095D01*
X233833333Y-93885714D01*
X233738095Y-93933333D01*
X233642857Y-93933333D01*
X233547619Y-93885714D01*
X233500000Y-93838095D01*
X233452380Y-93742857D01*
X233452380Y-93504761D01*
X233500000Y-93361904D01*
X233452380Y-93028571D02*
X234452380Y-92790476D01*
X233738095Y-92600000D01*
X234452380Y-92409523D01*
X233452380Y-92171428D01*
X233547619Y-91838095D02*
X233500000Y-91790476D01*
X233452380Y-91695238D01*
X233452380Y-91457142D01*
X233500000Y-91361904D01*
X233547619Y-91314285D01*
X233642857Y-91266666D01*
X233738095Y-91266666D01*
X233880952Y-91314285D01*
X234452380Y-91885714D01*
X234452380Y-91266666D01*
X243404761Y-93933333D02*
X243452380Y-93790476D01*
X243452380Y-93552380D01*
X243404761Y-93457142D01*
X243357142Y-93409523D01*
X243261904Y-93361904D01*
X243166666Y-93361904D01*
X243071428Y-93409523D01*
X243023809Y-93457142D01*
X242976190Y-93552380D01*
X242928571Y-93742857D01*
X242880952Y-93838095D01*
X242833333Y-93885714D01*
X242738095Y-93933333D01*
X242642857Y-93933333D01*
X242547619Y-93885714D01*
X242500000Y-93838095D01*
X242452380Y-93742857D01*
X242452380Y-93504761D01*
X242500000Y-93361904D01*
X242452380Y-93028571D02*
X243452380Y-92790476D01*
X242738095Y-92600000D01*
X243452380Y-92409523D01*
X242452380Y-92171428D01*
X243452380Y-91266666D02*
X243452380Y-91838095D01*
X243452380Y-91552380D02*
X242452380Y-91552380D01*
X242595238Y-91647619D01*
X242690476Y-91742857D01*
X242738095Y-91838095D01*
X206452380Y-92611904D02*
X207261904Y-92611904D01*
X207357142Y-92564285D01*
X207404761Y-92516666D01*
X207452380Y-92421428D01*
X207452380Y-92230952D01*
X207404761Y-92135714D01*
X207357142Y-92088095D01*
X207261904Y-92040476D01*
X206452380Y-92040476D01*
X206547619Y-91611904D02*
X206500000Y-91564285D01*
X206452380Y-91469047D01*
X206452380Y-91230952D01*
X206500000Y-91135714D01*
X206547619Y-91088095D01*
X206642857Y-91040476D01*
X206738095Y-91040476D01*
X206880952Y-91088095D01*
X207452380Y-91659523D01*
X207452380Y-91040476D01*
D11*
X237337142Y-71528571D02*
X237337142Y-72742857D01*
X237408571Y-72885714D01*
X237480000Y-72957142D01*
X237622857Y-73028571D01*
X237908571Y-73028571D01*
X238051428Y-72957142D01*
X238122857Y-72885714D01*
X238194285Y-72742857D01*
X238194285Y-71528571D01*
X238765714Y-71528571D02*
X239694285Y-71528571D01*
X239194285Y-72100000D01*
X239408571Y-72100000D01*
X239551428Y-72171428D01*
X239622857Y-72242857D01*
X239694285Y-72385714D01*
X239694285Y-72742857D01*
X239622857Y-72885714D01*
X239551428Y-72957142D01*
X239408571Y-73028571D01*
X238980000Y-73028571D01*
X238837142Y-72957142D01*
X238765714Y-72885714D01*
X212127142Y-71678571D02*
X212127142Y-72892857D01*
X212198571Y-73035714D01*
X212270000Y-73107142D01*
X212412857Y-73178571D01*
X212698571Y-73178571D01*
X212841428Y-73107142D01*
X212912857Y-73035714D01*
X212984285Y-72892857D01*
X212984285Y-71678571D01*
X214412857Y-71678571D02*
X213698571Y-71678571D01*
X213627142Y-72392857D01*
X213698571Y-72321428D01*
X213841428Y-72250000D01*
X214198571Y-72250000D01*
X214341428Y-72321428D01*
X214412857Y-72392857D01*
X214484285Y-72535714D01*
X214484285Y-72892857D01*
X214412857Y-73035714D01*
X214341428Y-73107142D01*
X214198571Y-73178571D01*
X213841428Y-73178571D01*
X213698571Y-73107142D01*
X213627142Y-73035714D01*
D17*
X243404761Y-58083333D02*
X243452380Y-57940476D01*
X243452380Y-57702380D01*
X243404761Y-57607142D01*
X243357142Y-57559523D01*
X243261904Y-57511904D01*
X243166666Y-57511904D01*
X243071428Y-57559523D01*
X243023809Y-57607142D01*
X242976190Y-57702380D01*
X242928571Y-57892857D01*
X242880952Y-57988095D01*
X242833333Y-58035714D01*
X242738095Y-58083333D01*
X242642857Y-58083333D01*
X242547619Y-58035714D01*
X242500000Y-57988095D01*
X242452380Y-57892857D01*
X242452380Y-57654761D01*
X242500000Y-57511904D01*
X242452380Y-57178571D02*
X243452380Y-56940476D01*
X242738095Y-56750000D01*
X243452380Y-56559523D01*
X242452380Y-56321428D01*
X243452380Y-55416666D02*
X243452380Y-55988095D01*
X243452380Y-55702380D02*
X242452380Y-55702380D01*
X242595238Y-55797619D01*
X242690476Y-55892857D01*
X242738095Y-55988095D01*
X234404761Y-58083333D02*
X234452380Y-57940476D01*
X234452380Y-57702380D01*
X234404761Y-57607142D01*
X234357142Y-57559523D01*
X234261904Y-57511904D01*
X234166666Y-57511904D01*
X234071428Y-57559523D01*
X234023809Y-57607142D01*
X233976190Y-57702380D01*
X233928571Y-57892857D01*
X233880952Y-57988095D01*
X233833333Y-58035714D01*
X233738095Y-58083333D01*
X233642857Y-58083333D01*
X233547619Y-58035714D01*
X233500000Y-57988095D01*
X233452380Y-57892857D01*
X233452380Y-57654761D01*
X233500000Y-57511904D01*
X233452380Y-57178571D02*
X234452380Y-56940476D01*
X233738095Y-56750000D01*
X234452380Y-56559523D01*
X233452380Y-56321428D01*
X233547619Y-55988095D02*
X233500000Y-55940476D01*
X233452380Y-55845238D01*
X233452380Y-55607142D01*
X233500000Y-55511904D01*
X233547619Y-55464285D01*
X233642857Y-55416666D01*
X233738095Y-55416666D01*
X233880952Y-55464285D01*
X234452380Y-56035714D01*
X234452380Y-55416666D01*
X206452380Y-56761904D02*
X207261904Y-56761904D01*
X207357142Y-56714285D01*
X207404761Y-56666666D01*
X207452380Y-56571428D01*
X207452380Y-56380952D01*
X207404761Y-56285714D01*
X207357142Y-56238095D01*
X207261904Y-56190476D01*
X206452380Y-56190476D01*
X206547619Y-55761904D02*
X206500000Y-55714285D01*
X206452380Y-55619047D01*
X206452380Y-55380952D01*
X206500000Y-55285714D01*
X206547619Y-55238095D01*
X206642857Y-55190476D01*
X206738095Y-55190476D01*
X206880952Y-55238095D01*
X207452380Y-55809523D01*
X207452380Y-55190476D01*
D11*
X237337142Y-35678571D02*
X237337142Y-36892857D01*
X237408571Y-37035714D01*
X237480000Y-37107142D01*
X237622857Y-37178571D01*
X237908571Y-37178571D01*
X238051428Y-37107142D01*
X238122857Y-37035714D01*
X238194285Y-36892857D01*
X238194285Y-35678571D01*
X238765714Y-35678571D02*
X239694285Y-35678571D01*
X239194285Y-36250000D01*
X239408571Y-36250000D01*
X239551428Y-36321428D01*
X239622857Y-36392857D01*
X239694285Y-36535714D01*
X239694285Y-36892857D01*
X239622857Y-37035714D01*
X239551428Y-37107142D01*
X239408571Y-37178571D01*
X238980000Y-37178571D01*
X238837142Y-37107142D01*
X238765714Y-37035714D01*
X224357142Y-35678571D02*
X224357142Y-36892857D01*
X224428571Y-37035714D01*
X224500000Y-37107142D01*
X224642857Y-37178571D01*
X224928571Y-37178571D01*
X225071428Y-37107142D01*
X225142857Y-37035714D01*
X225214285Y-36892857D01*
X225214285Y-35678571D01*
X226571428Y-36178571D02*
X226571428Y-37178571D01*
X226214285Y-35607142D02*
X225857142Y-36678571D01*
X226785714Y-36678571D01*
X212127142Y-35828571D02*
X212127142Y-37042857D01*
X212198571Y-37185714D01*
X212270000Y-37257142D01*
X212412857Y-37328571D01*
X212698571Y-37328571D01*
X212841428Y-37257142D01*
X212912857Y-37185714D01*
X212984285Y-37042857D01*
X212984285Y-35828571D01*
X214412857Y-35828571D02*
X213698571Y-35828571D01*
X213627142Y-36542857D01*
X213698571Y-36471428D01*
X213841428Y-36400000D01*
X214198571Y-36400000D01*
X214341428Y-36471428D01*
X214412857Y-36542857D01*
X214484285Y-36685714D01*
X214484285Y-37042857D01*
X214412857Y-37185714D01*
X214341428Y-37257142D01*
X214198571Y-37328571D01*
X213841428Y-37328571D01*
X213698571Y-37257142D01*
X213627142Y-37185714D01*
M02*
